<svg width="1456" height="2048" viewBox="0 0 1456 2048" fill="none" xmlns="http://www.w3.org/2000/svg">
<g style="mix-blend-mode:multiply" opacity="0.1" filter="url(#filter0_b_2002_1607)">
<rect x="124" width="1240" height="2048" fill="#7C6957"/>
<rect x="124" width="1240" height="2048" fill="url(#paint0_radial_2002_1607)" fill-opacity="0.0"/>
</g>
<mask id="path-2-inside-1_2002_1607" fill="white">
<path d="M210 824H1278V1225H210V824Z"/>
</mask>
<path d="M210 1226H211.993V1224H210V1226ZM223.948 1226H227.933V1224H223.948V1226ZM239.888 1226H243.873V1224H239.888V1226ZM255.828 1226H259.813V1224H255.828V1226ZM271.769 1226H275.754V1224H271.769V1226ZM287.709 1226H291.694V1224H287.709V1226ZM303.649 1226H307.634V1224H303.649V1226ZM319.59 1226H323.575V1224H319.59V1226ZM335.53 1226H339.515V1224H335.53V1226ZM351.47 1226H355.455V1224H351.47V1226ZM367.41 1226H371.396V1224H367.41V1226ZM383.351 1226H387.336V1224H383.351V1226ZM399.291 1226H403.276V1224H399.291V1226ZM415.231 1226H419.216V1224H415.231V1226ZM431.172 1226H435.157V1224H431.172V1226ZM447.112 1226H451.097V1224H447.112V1226ZM463.052 1226H467.037V1224H463.052V1226ZM478.993 1226H482.978V1224H478.993V1226ZM494.933 1226H498.918V1224H494.933V1226ZM510.873 1226H514.858V1224H510.873V1226ZM526.814 1226H530.799V1224H526.814V1226ZM542.754 1226H546.739V1224H542.754V1226ZM558.694 1226H562.679V1224H558.694V1226ZM574.634 1226H578.62V1224H574.634V1226ZM590.575 1226H594.56V1224H590.575V1226ZM606.515 1226H610.5V1224H606.515V1226ZM622.455 1226H626.44V1224H622.455V1226ZM638.396 1226H642.381V1224H638.396V1226ZM654.336 1226H658.321V1224H654.336V1226ZM670.276 1226H674.261V1224H670.276V1226ZM686.217 1226H690.202V1224H686.217V1226ZM702.157 1226H706.142V1224H702.157V1226ZM718.097 1226H722.082V1224H718.097V1226ZM734.037 1226H738.023V1224H734.037V1226ZM749.978 1226H753.963V1224H749.978V1226ZM765.918 1226H769.903V1224H765.918V1226ZM781.858 1226H785.843V1224H781.858V1226ZM797.798 1226H801.784V1224H797.798V1226ZM813.739 1226H817.724V1224H813.739V1226ZM829.679 1226H833.664V1224H829.679V1226ZM845.619 1226H849.604V1224H845.619V1226ZM861.559 1226H865.544V1224H861.559V1226ZM877.5 1226H881.485V1224H877.5V1226ZM893.44 1226H897.425V1224H893.44V1226ZM909.38 1226H913.365V1224H909.38V1226ZM925.32 1226H929.305V1224H925.32V1226ZM941.261 1226H945.246V1224H941.261V1226ZM957.201 1226H961.186V1224H957.201V1226ZM973.141 1226H977.126V1224H973.141V1226ZM989.081 1226H993.066V1224H989.081V1226ZM1005.02 1226H1009.01V1224H1005.02V1226ZM1020.96 1226H1024.95V1224H1020.96V1226ZM1036.9 1226H1040.89V1224H1036.9V1226ZM1052.84 1226H1056.83V1224H1052.84V1226ZM1068.78 1226H1072.77V1224H1068.78V1226ZM1084.72 1226H1088.71V1224H1084.72V1226ZM1100.66 1226H1104.65V1224H1100.66V1226ZM1116.6 1226H1120.59V1224H1116.6V1226ZM1132.54 1226H1136.53V1224H1132.54V1226ZM1148.48 1226H1152.47V1224H1148.48V1226ZM1164.42 1226H1168.41V1224H1164.42V1226ZM1180.36 1226H1184.35V1224H1180.36V1226ZM1196.3 1226H1200.29V1224H1196.3V1226ZM1212.24 1226H1216.23V1224H1212.24V1226ZM1228.19 1226H1232.17V1224H1228.19V1226ZM1244.13 1226H1248.11V1224H1244.13V1226ZM1260.07 1226H1264.05V1224H1260.07V1226ZM1276.01 1226H1278V1224H1276.01V1226ZM1278 823H1276.01V825H1278V823ZM1264.05 823H1260.07V825H1264.05V823ZM1248.11 823H1244.13V825H1248.11V823ZM1232.17 823H1228.19V825H1232.17V823ZM1216.23 823H1212.25V825H1216.23V823ZM1200.29 823H1196.31V825H1200.29V823ZM1184.35 823H1180.37V825H1184.35V823ZM1168.41 823H1164.43V825H1168.41V823ZM1152.47 823H1148.49V825H1152.47V823ZM1136.53 823H1132.54V825H1136.53V823ZM1120.59 823H1116.6V825H1120.59V823ZM1104.65 823H1100.66V825H1104.65V823ZM1088.71 823H1084.72V825H1088.71V823ZM1072.77 823H1068.78V825H1072.77V823ZM1056.83 823H1052.84V825H1056.83V823ZM1040.89 823H1036.9V825H1040.89V823ZM1024.95 823H1020.96V825H1024.95V823ZM1009.01 823H1005.02V825H1009.01V823ZM993.067 823H989.082V825H993.067V823ZM977.127 823H973.142V825H977.127V823ZM961.186 823H957.201V825H961.186V823ZM945.246 823H941.261V825H945.246V823ZM929.306 823H925.321V825H929.306V823ZM913.366 823H909.38V825H913.366V823ZM897.425 823H893.44V825H897.425V823ZM881.485 823H877.5V825H881.485V823ZM865.545 823H861.56V825H865.545V823ZM849.604 823H845.619V825H849.604V823ZM833.664 823H829.679V825H833.664V823ZM817.724 823H813.739V825H817.724V823ZM801.783 823H797.798V825H801.783V823ZM785.843 823H781.858V825H785.843V823ZM769.903 823H765.918V825H769.903V823ZM753.963 823H749.977V825H753.963V823ZM738.022 823H734.037V825H738.022V823ZM722.082 823H718.097V825H722.082V823ZM706.142 823H702.157V825H706.142V823ZM690.202 823H686.217V825H690.202V823ZM674.261 823H670.276V825H674.261V823ZM658.321 823H654.336V825H658.321V823ZM642.381 823H638.396V825H642.381V823ZM626.441 823H622.456V825H626.441V823ZM610.5 823H606.515V825H610.5V823ZM594.56 823H590.575V825H594.56V823ZM578.62 823H574.635V825H578.62V823ZM562.68 823H558.695V825H562.68V823ZM546.739 823H542.754V825H546.739V823ZM530.799 823H526.814V825H530.799V823ZM514.859 823H510.874V825H514.859V823ZM498.919 823H494.934V825H498.919V823ZM482.978 823H478.993V825H482.978V823ZM467.038 823H463.053V825H467.038V823ZM451.098 823H447.113V825H451.098V823ZM435.158 823H431.173V825H435.158V823ZM419.217 823H415.232V825H419.217V823ZM403.277 823H399.292V825H403.277V823ZM387.337 823H383.352V825H387.337V823ZM371.397 823H367.412V825H371.397V823ZM355.456 823H351.471V825H355.456V823ZM339.516 823H335.531V825H339.516V823ZM323.576 823H319.591V825H323.576V823ZM307.636 823H303.651V825H307.636V823ZM291.695 823H287.71V825H291.695V823ZM275.755 823H271.77V825H275.755V823ZM259.815 823H255.83V825H259.815V823ZM243.875 823H239.89V825H243.875V823ZM227.934 823H223.949V825H227.934V823ZM211.994 823H210V825H211.994V823ZM210 1227H211.993V1223H210V1227ZM223.948 1227H227.933V1223H223.948V1227ZM239.888 1227H243.873V1223H239.888V1227ZM255.828 1227H259.813V1223H255.828V1227ZM271.769 1227H275.754V1223H271.769V1227ZM287.709 1227H291.694V1223H287.709V1227ZM303.649 1227H307.634V1223H303.649V1227ZM319.59 1227H323.575V1223H319.59V1227ZM335.53 1227H339.515V1223H335.53V1227ZM351.47 1227H355.455V1223H351.47V1227ZM367.41 1227H371.396V1223H367.41V1227ZM383.351 1227H387.336V1223H383.351V1227ZM399.291 1227H403.276V1223H399.291V1227ZM415.231 1227H419.216V1223H415.231V1227ZM431.172 1227H435.157V1223H431.172V1227ZM447.112 1227H451.097V1223H447.112V1227ZM463.052 1227H467.037V1223H463.052V1227ZM478.993 1227H482.978V1223H478.993V1227ZM494.933 1227H498.918V1223H494.933V1227ZM510.873 1227H514.858V1223H510.873V1227ZM526.814 1227H530.799V1223H526.814V1227ZM542.754 1227H546.739V1223H542.754V1227ZM558.694 1227H562.679V1223H558.694V1227ZM574.634 1227H578.62V1223H574.634V1227ZM590.575 1227H594.56V1223H590.575V1227ZM606.515 1227H610.5V1223H606.515V1227ZM622.455 1227H626.44V1223H622.455V1227ZM638.396 1227H642.381V1223H638.396V1227ZM654.336 1227H658.321V1223H654.336V1227ZM670.276 1227H674.261V1223H670.276V1227ZM686.217 1227H690.202V1223H686.217V1227ZM702.157 1227H706.142V1223H702.157V1227ZM718.097 1227H722.082V1223H718.097V1227ZM734.037 1227H738.023V1223H734.037V1227ZM749.978 1227H753.963V1223H749.978V1227ZM765.918 1227H769.903V1223H765.918V1227ZM781.858 1227H785.843V1223H781.858V1227ZM797.798 1227H801.784V1223H797.798V1227ZM813.739 1227H817.724V1223H813.739V1227ZM829.679 1227H833.664V1223H829.679V1227ZM845.619 1227H849.604V1223H845.619V1227ZM861.559 1227H865.544V1223H861.559V1227ZM877.5 1227H881.485V1223H877.5V1227ZM893.44 1227H897.425V1223H893.44V1227ZM909.38 1227H913.365V1223H909.38V1227ZM925.32 1227H929.305V1223H925.32V1227ZM941.261 1227H945.246V1223H941.261V1227ZM957.201 1227H961.186V1223H957.201V1227ZM973.141 1227H977.126V1223H973.141V1227ZM989.081 1227H993.066V1223H989.081V1227ZM1005.02 1227H1009.01V1223H1005.02V1227ZM1020.96 1227H1024.95V1223H1020.96V1227ZM1036.9 1227H1040.89V1223H1036.9V1227ZM1052.84 1227H1056.83V1223H1052.84V1227ZM1068.78 1227H1072.77V1223H1068.78V1227ZM1084.72 1227H1088.71V1223H1084.72V1227ZM1100.66 1227H1104.65V1223H1100.66V1227ZM1116.6 1227H1120.59V1223H1116.6V1227ZM1132.54 1227H1136.53V1223H1132.54V1227ZM1148.48 1227H1152.47V1223H1148.48V1227ZM1164.42 1227H1168.41V1223H1164.42V1227ZM1180.36 1227H1184.35V1223H1180.36V1227ZM1196.3 1227H1200.29V1223H1196.3V1227ZM1212.24 1227H1216.23V1223H1212.24V1227ZM1228.19 1227H1232.17V1223H1228.19V1227ZM1244.13 1227H1248.11V1223H1244.13V1227ZM1260.07 1227H1264.05V1223H1260.07V1227ZM1276.01 1227H1278V1223H1276.01V1227ZM1278 822H1276.01V826H1278V822ZM1264.05 822H1260.07V826H1264.05V822ZM1248.11 822H1244.13V826H1248.11V822ZM1232.17 822H1228.19V826H1232.17V822ZM1216.23 822H1212.25V826H1216.23V822ZM1200.29 822H1196.31V826H1200.29V822ZM1184.35 822H1180.37V826H1184.35V822ZM1168.41 822H1164.43V826H1168.41V822ZM1152.47 822H1148.49V826H1152.47V822ZM1136.53 822H1132.54V826H1136.53V822ZM1120.59 822H1116.6V826H1120.59V822ZM1104.65 822H1100.66V826H1104.65V822ZM1088.71 822H1084.72V826H1088.71V822ZM1072.77 822H1068.78V826H1072.77V822ZM1056.83 822H1052.84V826H1056.83V822ZM1040.89 822H1036.9V826H1040.89V822ZM1024.95 822H1020.96V826H1024.95V822ZM1009.01 822H1005.02V826H1009.01V822ZM993.067 822H989.082V826H993.067V822ZM977.127 822H973.142V826H977.127V822ZM961.186 822H957.201V826H961.186V822ZM945.246 822H941.261V826H945.246V822ZM929.306 822H925.321V826H929.306V822ZM913.366 822H909.38V826H913.366V822ZM897.425 822H893.44V826H897.425V822ZM881.485 822H877.5V826H881.485V822ZM865.545 822H861.56V826H865.545V822ZM849.604 822H845.619V826H849.604V822ZM833.664 822H829.679V826H833.664V822ZM817.724 822H813.739V826H817.724V822ZM801.783 822H797.798V826H801.783V822ZM785.843 822H781.858V826H785.843V822ZM769.903 822H765.918V826H769.903V822ZM753.963 822H749.977V826H753.963V822ZM738.022 822H734.037V826H738.022V822ZM722.082 822H718.097V826H722.082V822ZM706.142 822H702.157V826H706.142V822ZM690.202 822H686.217V826H690.202V822ZM674.261 822H670.276V826H674.261V822ZM658.321 822H654.336V826H658.321V822ZM642.381 822H638.396V826H642.381V822ZM626.441 822H622.456V826H626.441V822ZM610.5 822H606.515V826H610.5V822ZM594.56 822H590.575V826H594.56V822ZM578.62 822H574.635V826H578.62V822ZM562.68 822H558.695V826H562.68V822ZM546.739 822H542.754V826H546.739V822ZM530.799 822H526.814V826H530.799V822ZM514.859 822H510.874V826H514.859V822ZM498.919 822H494.934V826H498.919V822ZM482.978 822H478.993V826H482.978V822ZM467.038 822H463.053V826H467.038V822ZM451.098 822H447.113V826H451.098V822ZM435.158 822H431.173V826H435.158V822ZM419.217 822H415.232V826H419.217V822ZM403.277 822H399.292V826H403.277V822ZM387.337 822H383.352V826H387.337V822ZM371.397 822H367.412V826H371.397V822ZM355.456 822H351.471V826H355.456V822ZM339.516 822H335.531V826H339.516V822ZM323.576 822H319.591V826H323.576V822ZM307.636 822H303.651V826H307.636V822ZM291.695 822H287.71V826H291.695V822ZM275.755 822H271.77V826H275.755V822ZM259.815 822H255.83V826H259.815V822ZM243.875 822H239.89V826H243.875V822ZM227.934 822H223.949V826H227.934V822ZM211.994 822H210V826H211.994V822Z" fill="#EDD2A0" mask="url(#path-2-inside-1_2002_1607)"/>
<mask id="path-4-inside-2_2002_1607" fill="white">
<path d="M525 807H963V1242H525V807Z"/>
</mask>
<path d="M525 809H963V805H525V809ZM963 1240H525V1244H963V1240Z" fill="#EDD2A0" mask="url(#path-4-inside-2_2002_1607)"/>
<mask id="path-6-inside-3_2002_1607" fill="white">
<path d="M420 824H1068V1225H420V824Z"/>
</mask>
<path d="M420 826H1068V822H420V826ZM1068 1223H420V1227H1068V1223Z" fill="#EDD2A0" mask="url(#path-6-inside-3_2002_1607)"/>
<g filter="url(#filter1_d_2002_1607)">
<rect width="1240" height="371" transform="translate(124 839)" fill="#E9B98B"/>
<rect width="1240" height="371" transform="translate(124 839)" fill="url(#paint1_linear_2002_1607)" fill-opacity="0.2"/>
<rect x="155" y="870" width="1178" height="309" rx="47" stroke="#828C91" stroke-width="2" stroke-dasharray="4 12"/>
<rect x="155" y="870" width="1178" height="309" rx="47" stroke="#828C91" stroke-width="2" stroke-dasharray="74 102"/>
<g filter="url(#filter2_ddii_2002_1607)">
<circle cx="843.203" cy="734.728" r="33" fill="url(#paint2_radial_2002_1607)"/>
<circle cx="843.203" cy="734.728" r="30.75" stroke="url(#paint3_radial_2002_1607)" stroke-width="4.5"/>
</g>
<g filter="url(#filter3_dddii_2002_1607)">
<circle cx="742.703" cy="841.228" r="100.5" fill="url(#paint4_radial_2002_1607)"/>
<circle cx="742.703" cy="841.228" r="94.5001" stroke="url(#paint5_radial_2002_1607)" stroke-width="12"/>
</g>
<path opacity="0.4" d="M747.669 923.728C731.931 923.728 713.657 918.793 699.118 912.313C686.302 906.601 680.743 890.656 676.142 878.492C672.182 868.022 667.639 858.608 664.478 847.912C661.144 836.627 664.951 827.449 668.975 817.05C674.045 803.948 681.816 796.299 691.74 787.034C698.285 780.923 710.393 781.563 718.58 781.679C737.214 781.942 757.452 783.566 775.492 788.654C781.356 790.308 788.056 790.448 793.69 792.53C796.458 793.552 802.503 794.586 804.511 796.264C815.244 805.234 814.699 821.045 814.699 834.454C814.699 851.979 810.808 870.724 795.658 881.169C787.286 886.941 776.438 888.579 766.71 889.554C761.33 890.094 756.731 892.02 751.111 892.02C743.677 892.02 735.266 890.918 727.995 892.654C708.048 897.417 703.025 868.01 703.404 853.971C703.604 846.543 708.551 834.817 713.24 829.592C717.229 825.148 722.198 818.312 722.374 812.118C722.6 804.199 724.399 795.052 726.098 787.386C727.442 781.323 732.393 775.381 738.183 772.801C749.468 767.771 760.076 767.728 772.26 767.728C788.997 767.728 789.706 781.713 789.404 795.348C789.09 809.538 785.799 823.845 785.61 838.047C785.38 855.39 785.61 872.547 785.61 889.766C785.61 896.528 787.902 901.939 784.626 908.508C782.418 912.937 777.407 916.392 772.963 918.373C763.195 922.726 754.841 922.459 743.874 922.459" stroke="#F2A057" stroke-width="4.5" stroke-linecap="round"/>
<path d="M737.101 899.981C716.122 879.363 683.188 844.494 692.61 810.554C699.519 785.665 728.061 784.441 746.704 775.053C752.067 772.352 748.946 753.909 753.639 757.752C763.206 765.588 763.39 785.939 760.574 796.623C754.55 819.481 736.712 834.727 726.112 854.818C720.247 865.935 741.963 859.019 746.704 858.526C766.59 856.455 787.311 853.47 807.306 853.47C808.012 853.47 806.223 854.425 805.706 854.93C798.888 861.596 790.36 866.557 782.766 872.119C763.997 885.868 745.923 901.515 725.365 912.339C704.336 923.41 709.579 865.899 711.281 856.166C715.51 831.996 747.155 826.581 765.695 821.115C775.178 818.319 788.598 818.076 788.955 804.937C789.175 796.809 786.099 796.636 780.206 793.815C764.47 786.284 747.506 806.524 739.875 818.194C728.089 836.218 734.596 855.672 747.984 870.097C754.02 876.6 765.909 881.185 765.909 890.993C765.909 906.713 742.055 913.34 729.739 915.934C715.407 918.952 690.672 898.101 697.197 881.781C702.227 869.203 726.879 868.436 736.888 867.85C757.672 866.634 778.133 867.239 798.557 862.008C806.692 859.925 828.963 850.432 822.564 838.303C817.479 828.666 812.967 817.264 803.892 811.004C786.914 799.291 769.738 795.355 749.158 796.96C720.445 799.2 686.699 799.234 669.137 825.945C664.881 832.418 661.099 843.275 664.549 851.448C671.927 868.926 676.854 878.552 694.53 888.634C710.437 897.706 727.984 907.503 744.783 914.136" stroke="#F2D9BA" stroke-opacity="0.5" stroke-width="4.5" stroke-linecap="round"/>
<path d="M653.084 900.086C469.334 1125.09 995.084 710.336 872.834 749.336" stroke="#A4A19D" stroke-width="3" stroke-linecap="round"/>
<path d="M425.131 1043V990.636H446.762C450.682 990.636 454.066 991.403 456.912 992.938C459.776 994.455 461.983 996.577 463.534 999.304C465.086 1002.01 465.861 1005.17 465.861 1008.76C465.861 1012.38 465.069 1015.54 463.483 1018.25C461.915 1020.94 459.674 1023.03 456.759 1024.51C453.844 1026 450.384 1026.74 446.378 1026.74H433.032V1016.77H444.026C445.935 1016.77 447.529 1016.43 448.807 1015.77C450.103 1015.11 451.083 1014.18 451.748 1012.98C452.412 1011.77 452.745 1010.37 452.745 1008.76C452.745 1007.14 452.412 1005.75 451.748 1004.57C451.083 1003.38 450.103 1002.46 448.807 1001.81C447.512 1001.16 445.918 1000.84 444.026 1000.84H437.787V1043H425.131ZM486.5 1043V990.636H499.156V1032.72H520.94V1043H486.5ZM553.922 1043H540.32L557.987 990.636H574.837L592.504 1043H578.902L566.604 1003.83H566.195L553.922 1043ZM552.106 1022.39H580.538V1032.01H552.106V1022.39ZM657.107 990.636V1043H646.369L625.531 1012.78H625.198V1043H612.542V990.636H623.434L644.042 1020.81H644.477V990.636H657.107ZM679.465 1043V990.636H715.977V1000.91H692.122V1011.65H714.11V1021.96H692.122V1032.72H715.977V1043H679.465ZM736.59 1000.91V990.636H780.848V1000.91H764.971V1043H752.493V1000.91H736.59ZM843.852 1043L828.614 990.636H842.599L850.5 1024.95H850.935L859.96 990.636H871.364L880.389 1025.03H880.824L888.75 990.636H902.71L887.497 1043H875.301L865.866 1011.24H865.457L856.023 1043H843.852ZM934.995 990.636V1043H922.339V990.636H934.995ZM1001.91 990.636V1043H991.167L970.329 1012.78H969.997V1043H957.34V990.636H968.232L988.84 1020.81H989.275V990.636H1001.91ZM1052.57 1006.34C1052.4 1004.46 1051.64 1003 1050.29 1001.96C1048.96 1000.91 1047.06 1000.38 1044.59 1000.38C1042.95 1000.38 1041.59 1000.59 1040.5 1001.02C1039.41 1001.44 1038.59 1002.03 1038.05 1002.78C1037.5 1003.51 1037.22 1004.36 1037.2 1005.31C1037.17 1006.1 1037.32 1006.79 1037.66 1007.38C1038.02 1007.98 1038.53 1008.51 1039.2 1008.97C1039.88 1009.41 1040.7 1009.8 1041.65 1010.14C1042.6 1010.49 1043.68 1010.78 1044.87 1011.04L1049.37 1012.06C1051.96 1012.62 1054.25 1013.38 1056.22 1014.31C1058.22 1015.25 1059.89 1016.37 1061.24 1017.66C1062.6 1018.96 1063.63 1020.45 1064.33 1022.14C1065.03 1023.82 1065.39 1025.72 1065.4 1027.81C1065.39 1031.12 1064.55 1033.96 1062.9 1036.33C1061.24 1038.7 1058.87 1040.51 1055.76 1041.77C1052.68 1043.03 1048.95 1043.66 1044.59 1043.66C1040.21 1043.66 1036.39 1043.01 1033.14 1041.7C1029.88 1040.38 1027.35 1038.39 1025.54 1035.71C1023.74 1033.04 1022.81 1029.65 1022.76 1025.56H1034.87C1034.98 1027.25 1035.43 1028.66 1036.23 1029.78C1037.03 1030.91 1038.13 1031.76 1039.53 1032.34C1040.94 1032.92 1042.58 1033.21 1044.44 1033.21C1046.14 1033.21 1047.59 1032.98 1048.78 1032.52C1049.99 1032.06 1050.92 1031.42 1051.57 1030.6C1052.22 1029.78 1052.55 1028.84 1052.57 1027.79C1052.55 1026.8 1052.24 1025.95 1051.65 1025.26C1051.05 1024.54 1050.13 1023.93 1048.89 1023.41C1047.66 1022.89 1046.09 1022.4 1044.18 1021.96L1038.71 1020.68C1034.18 1019.64 1030.6 1017.96 1028 1015.64C1025.39 1013.31 1024.09 1010.15 1024.11 1006.18C1024.09 1002.94 1024.96 1000.11 1026.72 997.668C1028.47 995.23 1030.9 993.33 1034.01 991.966C1037.11 990.602 1040.64 989.92 1044.62 989.92C1048.67 989.92 1052.19 990.611 1055.18 991.991C1058.18 993.355 1060.5 995.273 1062.16 997.744C1063.81 1000.22 1064.65 1003.08 1064.69 1006.34H1052.57Z" fill="#4F5D64"/>
<g filter="url(#filter4_dii_2002_1607)">
<circle cx="1288" cy="1134" r="12" fill="#F9E5BF"/>
<circle cx="1288" cy="1134" r="13.5" stroke="url(#paint6_angular_2002_1607)" stroke-width="3"/>
</g>
<g filter="url(#filter5_dii_2002_1607)">
<circle cx="200" cy="1134" r="12" fill="#F9E5BF"/>
<circle cx="200" cy="1134" r="13.5" stroke="url(#paint7_angular_2002_1607)" stroke-width="3"/>
</g>
<g filter="url(#filter6_dii_2002_1607)">
<circle cx="1288" cy="915" r="12" fill="#F9E5BF"/>
<circle cx="1288" cy="915" r="13.5" stroke="url(#paint8_angular_2002_1607)" stroke-width="3"/>
</g>
<g filter="url(#filter7_dii_2002_1607)">
<circle cx="200" cy="915" r="12" fill="#F9E5BF"/>
<circle cx="200" cy="915" r="13.5" stroke="url(#paint9_angular_2002_1607)" stroke-width="3"/>
</g>
<g filter="url(#filter8_ii_2002_1607)">
<rect x="543" y="1091" width="218" height="40" rx="8" fill="#4F5D64"/>
<path d="M572.43 1103.45V1118H569.774L563.446 1108.85H563.339V1118H560.264V1103.45H562.963L569.241 1112.6H569.369V1103.45H572.43ZM580.971 1118V1103.45H590.772V1105.99H584.047V1109.46H590.268V1111.99H584.047V1115.46H590.801V1118H580.971ZM602.101 1103.45L605.034 1108.41H605.148L608.095 1103.45H611.568L607.129 1110.73L611.668 1118H608.131L605.148 1113.04H605.034L602.051 1118H598.528L603.081 1110.73L598.614 1103.45H602.101ZM618.96 1105.99V1103.45H630.906V1105.99H626.453V1118H623.413V1105.99H618.96ZM649.502 1118V1103.45H655.241C656.34 1103.45 657.277 1103.65 658.054 1104.04C658.835 1104.43 659.429 1104.98 659.836 1105.7C660.248 1106.41 660.454 1107.24 660.454 1108.21C660.454 1109.17 660.246 1110 659.829 1110.7C659.413 1111.39 658.809 1111.92 658.018 1112.29C657.232 1112.66 656.28 1112.84 655.163 1112.84H651.321V1110.37H654.666C655.253 1110.37 655.741 1110.29 656.129 1110.13C656.517 1109.97 656.806 1109.73 656.995 1109.41C657.19 1109.08 657.287 1108.68 657.287 1108.21C657.287 1107.72 657.19 1107.32 656.995 1106.98C656.806 1106.65 656.515 1106.4 656.122 1106.23C655.734 1106.06 655.243 1105.97 654.652 1105.97H652.578V1118H649.502ZM657.358 1111.38L660.973 1118H657.578L654.041 1111.38H657.358ZM681.994 1110.73C681.994 1112.31 681.693 1113.66 681.092 1114.78C680.495 1115.89 679.681 1116.74 678.649 1117.33C677.621 1117.91 676.466 1118.2 675.183 1118.2C673.89 1118.2 672.73 1117.91 671.703 1117.32C670.675 1116.73 669.863 1115.88 669.267 1114.77C668.67 1113.66 668.372 1112.31 668.372 1110.73C668.372 1109.14 668.67 1107.79 669.267 1106.68C669.863 1105.57 670.675 1104.72 671.703 1104.14C672.73 1103.55 673.89 1103.26 675.183 1103.26C676.466 1103.26 677.621 1103.55 678.649 1104.14C679.681 1104.72 680.495 1105.57 681.092 1106.68C681.693 1107.79 681.994 1109.14 681.994 1110.73ZM678.876 1110.73C678.876 1109.7 678.722 1108.83 678.414 1108.13C678.111 1107.42 677.683 1106.89 677.129 1106.52C676.575 1106.16 675.926 1105.98 675.183 1105.98C674.44 1105.98 673.791 1106.16 673.237 1106.52C672.683 1106.89 672.252 1107.42 671.944 1108.13C671.641 1108.83 671.49 1109.7 671.49 1110.73C671.49 1111.75 671.641 1112.62 671.944 1113.33C672.252 1114.03 672.683 1114.57 673.237 1114.93C673.791 1115.3 674.44 1115.48 675.183 1115.48C675.926 1115.48 676.575 1115.3 677.129 1114.93C677.683 1114.57 678.111 1114.03 678.414 1113.33C678.722 1112.62 678.876 1111.75 678.876 1110.73ZM699.256 1103.45H702.332V1112.9C702.332 1113.96 702.078 1114.89 701.572 1115.68C701.07 1116.48 700.367 1117.1 699.462 1117.55C698.558 1117.99 697.504 1118.21 696.302 1118.21C695.094 1118.21 694.039 1117.99 693.134 1117.55C692.23 1117.1 691.527 1116.48 691.025 1115.68C690.523 1114.89 690.272 1113.96 690.272 1112.9V1103.45H693.347V1112.64C693.347 1113.19 693.468 1113.68 693.71 1114.12C693.956 1114.55 694.301 1114.88 694.746 1115.13C695.192 1115.38 695.71 1115.5 696.302 1115.5C696.898 1115.5 697.417 1115.38 697.857 1115.13C698.302 1114.88 698.646 1114.55 698.887 1114.12C699.133 1113.68 699.256 1113.19 699.256 1112.64V1103.45ZM723.028 1103.45V1118H720.372L714.044 1108.85H713.937V1118H710.862V1103.45H713.561L719.839 1112.6H719.967V1103.45H723.028ZM736.725 1118H731.569V1103.45H736.768C738.231 1103.45 739.49 1103.75 740.546 1104.33C741.602 1104.91 742.414 1105.74 742.982 1106.82C743.555 1107.91 743.842 1109.2 743.842 1110.71C743.842 1112.23 743.555 1113.53 742.982 1114.62C742.414 1115.71 741.597 1116.54 740.532 1117.13C739.471 1117.71 738.202 1118 736.725 1118ZM734.644 1115.37H736.597C737.506 1115.37 738.271 1115.2 738.891 1114.88C739.516 1114.56 739.985 1114.05 740.298 1113.37C740.615 1112.68 740.773 1111.8 740.773 1110.71C740.773 1109.64 740.615 1108.76 740.298 1108.08C739.985 1107.4 739.519 1106.89 738.898 1106.57C738.278 1106.25 737.513 1106.09 736.604 1106.09H734.644V1115.37Z" fill="#EED2A1"/>
</g>
<g filter="url(#filter9_ii_2002_1607)">
<rect x="785" y="1091" width="160" height="40" rx="8" fill="#4F5D64"/>
<path d="M802.264 1118V1103.45H808.003C809.101 1103.45 810.039 1103.65 810.815 1104.04C811.597 1104.43 812.191 1104.98 812.598 1105.7C813.01 1106.41 813.216 1107.24 813.216 1108.21C813.216 1109.17 813.008 1110 812.591 1110.7C812.174 1111.39 811.571 1111.92 810.78 1112.29C809.994 1112.66 809.042 1112.84 807.925 1112.84H804.082V1110.37H807.428C808.015 1110.37 808.502 1110.29 808.891 1110.13C809.279 1109.97 809.568 1109.73 809.757 1109.41C809.951 1109.08 810.048 1108.68 810.048 1108.21C810.048 1107.72 809.951 1107.32 809.757 1106.98C809.568 1106.65 809.277 1106.4 808.884 1106.23C808.495 1106.06 808.005 1105.97 807.413 1105.97H805.339V1118H802.264ZM810.119 1111.38L813.734 1118H810.339L806.803 1111.38H810.119ZM821.389 1118V1103.45H831.19V1105.99H824.464V1109.46H830.686V1111.99H824.464V1115.46H831.219V1118H821.389ZM847.526 1107.64C847.469 1107.06 847.225 1106.62 846.794 1106.3C846.364 1105.99 845.779 1105.83 845.04 1105.83C844.538 1105.83 844.114 1105.9 843.769 1106.04C843.423 1106.18 843.158 1106.37 842.973 1106.62C842.793 1106.86 842.703 1107.14 842.703 1107.45C842.694 1107.71 842.748 1107.94 842.867 1108.13C842.99 1108.33 843.158 1108.5 843.371 1108.64C843.584 1108.78 843.83 1108.9 844.11 1109C844.389 1109.1 844.687 1109.19 845.005 1109.26L846.311 1109.57C846.946 1109.71 847.528 1109.9 848.059 1110.14C848.589 1110.37 849.048 1110.67 849.436 1111.01C849.825 1111.36 850.125 1111.76 850.338 1112.23C850.556 1112.7 850.667 1113.24 850.672 1113.85C850.667 1114.74 850.44 1115.51 849.99 1116.16C849.545 1116.81 848.901 1117.31 848.059 1117.67C847.221 1118.03 846.21 1118.21 845.026 1118.21C843.852 1118.21 842.829 1118.03 841.958 1117.67C841.091 1117.31 840.414 1116.77 839.926 1116.07C839.444 1115.36 839.19 1114.48 839.167 1113.43H842.142C842.176 1113.92 842.315 1114.33 842.561 1114.65C842.812 1114.98 843.146 1115.22 843.563 1115.39C843.984 1115.55 844.46 1115.63 844.99 1115.63C845.511 1115.63 845.963 1115.55 846.347 1115.4C846.735 1115.25 847.036 1115.04 847.249 1114.77C847.462 1114.5 847.569 1114.19 847.569 1113.84C847.569 1113.51 847.471 1113.24 847.277 1113.01C847.088 1112.79 846.809 1112.6 846.439 1112.45C846.075 1112.29 845.627 1112.15 845.097 1112.02L843.513 1111.62C842.287 1111.32 841.319 1110.86 840.608 1110.22C839.898 1109.59 839.545 1108.73 839.55 1107.66C839.545 1106.78 839.78 1106.01 840.253 1105.35C840.731 1104.69 841.387 1104.18 842.221 1103.81C843.054 1103.44 844.001 1103.26 845.061 1103.26C846.141 1103.26 847.083 1103.44 847.888 1103.81C848.698 1104.18 849.328 1104.69 849.777 1105.35C850.227 1106.01 850.459 1106.77 850.473 1107.64H847.526ZM858.187 1105.99V1103.45H870.133V1105.99H865.68V1118H862.64V1105.99H858.187ZM878.83 1118H875.534L880.556 1103.45H884.519L889.533 1118H886.238L882.594 1106.78H882.48L878.83 1118ZM878.624 1112.28H886.408V1114.68H878.624V1112.28ZM897.284 1118V1103.45H903.022C904.121 1103.45 905.058 1103.65 905.835 1104.04C906.616 1104.43 907.21 1104.98 907.618 1105.7C908.029 1106.41 908.235 1107.24 908.235 1108.21C908.235 1109.17 908.027 1110 907.61 1110.7C907.194 1111.39 906.59 1111.92 905.799 1112.29C905.013 1112.66 904.062 1112.84 902.944 1112.84H899.102V1110.37H902.447C903.034 1110.37 903.522 1110.29 903.91 1110.13C904.298 1109.97 904.587 1109.73 904.777 1109.41C904.971 1109.08 905.068 1108.68 905.068 1108.21C905.068 1107.72 904.971 1107.32 904.777 1106.98C904.587 1106.65 904.296 1106.4 903.903 1106.23C903.515 1106.06 903.025 1105.97 902.433 1105.97H900.359V1118H897.284ZM905.139 1111.38L908.754 1118H905.359L901.822 1111.38H905.139ZM915.855 1105.99V1103.45H927.801V1105.99H923.348V1118H920.308V1105.99H915.855Z" fill="#EED2A1"/>
</g>
</g>
<defs>
<filter id="filter0_b_2002_1607" x="104" y="-20" width="1280" height="2088" filterUnits="userSpaceOnUse" color-interpolation-filters="sRGB">
<feFlood flood-opacity="0" result="BackgroundImageFix"/>
<feGaussianBlur in="BackgroundImageFix" stdDeviation="10"/>
<feComposite in2="SourceAlpha" operator="in" result="effect1_backgroundBlur_2002_1607"/>
<feBlend mode="normal" in="SourceGraphic" in2="effect1_backgroundBlur_2002_1607" result="shape"/>
</filter>
<filter id="filter1_d_2002_1607" x="0" y="621.728" width="1456" height="724.272" filterUnits="userSpaceOnUse" color-interpolation-filters="sRGB">
<feFlood flood-opacity="0" result="BackgroundImageFix"/>
<feColorMatrix in="SourceAlpha" type="matrix" values="0 0 0 0 0 0 0 0 0 0 0 0 0 0 0 0 0 0 127 0" result="hardAlpha"/>
<feOffset dx="-16" dy="28"/>
<feGaussianBlur stdDeviation="54"/>
<feComposite in2="hardAlpha" operator="out"/>
<feColorMatrix type="matrix" values="0 0 0 0 0 0 0 0 0 0 0 0 0 0 0 0 0 0 0.55 0"/>
<feBlend mode="normal" in2="BackgroundImageFix" result="effect1_dropShadow_2002_1607"/>
<feBlend mode="normal" in="SourceGraphic" in2="effect1_dropShadow_2002_1607" result="shape"/>
</filter>
<filter id="filter2_ddii_2002_1607" x="732.203" y="689.728" width="174" height="174" filterUnits="userSpaceOnUse" color-interpolation-filters="sRGB">
<feFlood flood-opacity="0" result="BackgroundImageFix"/>
<feColorMatrix in="SourceAlpha" type="matrix" values="0 0 0 0 0 0 0 0 0 0 0 0 0 0 0 0 0 0 127 0" result="hardAlpha"/>
<feOffset dx="-24" dy="42"/>
<feGaussianBlur stdDeviation="27"/>
<feComposite in2="hardAlpha" operator="out"/>
<feColorMatrix type="matrix" values="0 0 0 0 0.337255 0 0 0 0 0.333333 0 0 0 0 0.364706 0 0 0 0.5 0"/>
<feBlend mode="normal" in2="BackgroundImageFix" result="effect1_dropShadow_2002_1607"/>
<feColorMatrix in="SourceAlpha" type="matrix" values="0 0 0 0 0 0 0 0 0 0 0 0 0 0 0 0 0 0 127 0" result="hardAlpha"/>
<feMorphology radius="24" operator="erode" in="SourceAlpha" result="effect2_dropShadow_2002_1607"/>
<feOffset dx="-18" dy="37.5"/>
<feGaussianBlur stdDeviation="15"/>
<feComposite in2="hardAlpha" operator="out"/>
<feColorMatrix type="matrix" values="0 0 0 0 0.32895 0 0 0 0 0.312847 0 0 0 0 0.441667 0 0 0 0.55 0"/>
<feBlend mode="normal" in2="effect1_dropShadow_2002_1607" result="effect2_dropShadow_2002_1607"/>
<feBlend mode="normal" in="SourceGraphic" in2="effect2_dropShadow_2002_1607" result="shape"/>
<feColorMatrix in="SourceAlpha" type="matrix" values="0 0 0 0 0 0 0 0 0 0 0 0 0 0 0 0 0 0 127 0" result="hardAlpha"/>
<feMorphology radius="6" operator="erode" in="SourceAlpha" result="effect3_innerShadow_2002_1607"/>
<feOffset dx="-1.5" dy="1.5"/>
<feGaussianBlur stdDeviation="1.5"/>
<feComposite in2="hardAlpha" operator="arithmetic" k2="-1" k3="1"/>
<feColorMatrix type="matrix" values="0 0 0 0 1 0 0 0 0 0.931869 0 0 0 0 0.8625 0 0 0 1 0"/>
<feBlend mode="normal" in2="shape" result="effect3_innerShadow_2002_1607"/>
<feColorMatrix in="SourceAlpha" type="matrix" values="0 0 0 0 0 0 0 0 0 0 0 0 0 0 0 0 0 0 127 0" result="hardAlpha"/>
<feMorphology radius="3" operator="erode" in="SourceAlpha" result="effect4_innerShadow_2002_1607"/>
<feOffset dx="4.5" dy="-3"/>
<feGaussianBlur stdDeviation="3"/>
<feComposite in2="hardAlpha" operator="arithmetic" k2="-1" k3="1"/>
<feColorMatrix type="matrix" values="0 0 0 0 0 0 0 0 0 0 0 0 0 0 0 0 0 0 0.25 0"/>
<feBlend mode="normal" in2="effect3_innerShadow_2002_1607" result="effect4_innerShadow_2002_1607"/>
</filter>
<filter id="filter3_dddii_2002_1607" x="590.203" y="732.728" width="273" height="273" filterUnits="userSpaceOnUse" color-interpolation-filters="sRGB">
<feFlood flood-opacity="0" result="BackgroundImageFix"/>
<feColorMatrix in="SourceAlpha" type="matrix" values="0 0 0 0 0 0 0 0 0 0 0 0 0 0 0 0 0 0 127 0" result="hardAlpha"/>
<feOffset dx="-16" dy="28"/>
<feGaussianBlur stdDeviation="18"/>
<feComposite in2="hardAlpha" operator="out"/>
<feColorMatrix type="matrix" values="0 0 0 0 0.337255 0 0 0 0 0.333333 0 0 0 0 0.364706 0 0 0 0.5 0"/>
<feBlend mode="normal" in2="BackgroundImageFix" result="effect1_dropShadow_2002_1607"/>
<feColorMatrix in="SourceAlpha" type="matrix" values="0 0 0 0 0 0 0 0 0 0 0 0 0 0 0 0 0 0 127 0" result="hardAlpha"/>
<feMorphology radius="16" operator="erode" in="SourceAlpha" result="effect2_dropShadow_2002_1607"/>
<feOffset dx="-12" dy="25"/>
<feGaussianBlur stdDeviation="10"/>
<feComposite in2="hardAlpha" operator="out"/>
<feColorMatrix type="matrix" values="0 0 0 0 0.32895 0 0 0 0 0.312847 0 0 0 0 0.441667 0 0 0 0.85 0"/>
<feBlend mode="normal" in2="effect1_dropShadow_2002_1607" result="effect2_dropShadow_2002_1607"/>
<feColorMatrix in="SourceAlpha" type="matrix" values="0 0 0 0 0 0 0 0 0 0 0 0 0 0 0 0 0 0 127 0" result="hardAlpha"/>
<feOffset dy="4"/>
<feGaussianBlur stdDeviation="6"/>
<feComposite in2="hardAlpha" operator="out"/>
<feColorMatrix type="matrix" values="0 0 0 0 0 0 0 0 0 0 0 0 0 0 0 0 0 0 0.25 0"/>
<feBlend mode="normal" in2="effect2_dropShadow_2002_1607" result="effect3_dropShadow_2002_1607"/>
<feBlend mode="normal" in="SourceGraphic" in2="effect3_dropShadow_2002_1607" result="shape"/>
<feColorMatrix in="SourceAlpha" type="matrix" values="0 0 0 0 0 0 0 0 0 0 0 0 0 0 0 0 0 0 127 0" result="hardAlpha"/>
<feMorphology radius="8" operator="erode" in="SourceAlpha" result="effect4_innerShadow_2002_1607"/>
<feOffset dx="-1" dy="1"/>
<feGaussianBlur stdDeviation="2"/>
<feComposite in2="hardAlpha" operator="arithmetic" k2="-1" k3="1"/>
<feColorMatrix type="matrix" values="0 0 0 0 0.983333 0 0 0 0 0.818891 0 0 0 0 0.651458 0 0 0 1 0"/>
<feBlend mode="normal" in2="shape" result="effect4_innerShadow_2002_1607"/>
<feColorMatrix in="SourceAlpha" type="matrix" values="0 0 0 0 0 0 0 0 0 0 0 0 0 0 0 0 0 0 127 0" result="hardAlpha"/>
<feMorphology radius="7" operator="erode" in="SourceAlpha" result="effect5_innerShadow_2002_1607"/>
<feOffset dx="3" dy="-2"/>
<feGaussianBlur stdDeviation="5"/>
<feComposite in2="hardAlpha" operator="arithmetic" k2="-1" k3="1"/>
<feColorMatrix type="matrix" values="0 0 0 0 0 0 0 0 0 0 0 0 0 0 0 0 0 0 0.25 0"/>
<feBlend mode="normal" in2="effect4_innerShadow_2002_1607" result="effect5_innerShadow_2002_1607"/>
</filter>
<filter id="filter4_dii_2002_1607" x="1269" y="1115" width="38" height="40" filterUnits="userSpaceOnUse" color-interpolation-filters="sRGB">
<feFlood flood-opacity="0" result="BackgroundImageFix"/>
<feColorMatrix in="SourceAlpha" type="matrix" values="0 0 0 0 0 0 0 0 0 0 0 0 0 0 0 0 0 0 127 0" result="hardAlpha"/>
<feOffset dy="2"/>
<feGaussianBlur stdDeviation="2"/>
<feComposite in2="hardAlpha" operator="out"/>
<feColorMatrix type="matrix" values="0 0 0 0 0 0 0 0 0 0 0 0 0 0 0 0 0 0 0.75 0"/>
<feBlend mode="normal" in2="BackgroundImageFix" result="effect1_dropShadow_2002_1607"/>
<feBlend mode="normal" in="SourceGraphic" in2="effect1_dropShadow_2002_1607" result="shape"/>
<feColorMatrix in="SourceAlpha" type="matrix" values="0 0 0 0 0 0 0 0 0 0 0 0 0 0 0 0 0 0 127 0" result="hardAlpha"/>
<feOffset dx="5" dy="-6"/>
<feGaussianBlur stdDeviation="2"/>
<feComposite in2="hardAlpha" operator="arithmetic" k2="-1" k3="1"/>
<feColorMatrix type="matrix" values="0 0 0 0 0.992157 0 0 0 0 0.960784 0 0 0 0 0.854902 0 0 0 1 0"/>
<feBlend mode="normal" in2="shape" result="effect2_innerShadow_2002_1607"/>
<feColorMatrix in="SourceAlpha" type="matrix" values="0 0 0 0 0 0 0 0 0 0 0 0 0 0 0 0 0 0 127 0" result="hardAlpha"/>
<feMorphology radius="3" operator="erode" in="SourceAlpha" result="effect3_innerShadow_2002_1607"/>
<feOffset dx="-2" dy="3"/>
<feGaussianBlur stdDeviation="2"/>
<feComposite in2="hardAlpha" operator="arithmetic" k2="-1" k3="1"/>
<feColorMatrix type="matrix" values="0 0 0 0 0.972549 0 0 0 0 0.819608 0 0 0 0 0.623529 0 0 0 1 0"/>
<feBlend mode="normal" in2="effect2_innerShadow_2002_1607" result="effect3_innerShadow_2002_1607"/>
</filter>
<filter id="filter5_dii_2002_1607" x="181" y="1115" width="38" height="40" filterUnits="userSpaceOnUse" color-interpolation-filters="sRGB">
<feFlood flood-opacity="0" result="BackgroundImageFix"/>
<feColorMatrix in="SourceAlpha" type="matrix" values="0 0 0 0 0 0 0 0 0 0 0 0 0 0 0 0 0 0 127 0" result="hardAlpha"/>
<feOffset dy="2"/>
<feGaussianBlur stdDeviation="2"/>
<feComposite in2="hardAlpha" operator="out"/>
<feColorMatrix type="matrix" values="0 0 0 0 0 0 0 0 0 0 0 0 0 0 0 0 0 0 0.75 0"/>
<feBlend mode="normal" in2="BackgroundImageFix" result="effect1_dropShadow_2002_1607"/>
<feBlend mode="normal" in="SourceGraphic" in2="effect1_dropShadow_2002_1607" result="shape"/>
<feColorMatrix in="SourceAlpha" type="matrix" values="0 0 0 0 0 0 0 0 0 0 0 0 0 0 0 0 0 0 127 0" result="hardAlpha"/>
<feOffset dx="5" dy="-6"/>
<feGaussianBlur stdDeviation="2"/>
<feComposite in2="hardAlpha" operator="arithmetic" k2="-1" k3="1"/>
<feColorMatrix type="matrix" values="0 0 0 0 0.992157 0 0 0 0 0.960784 0 0 0 0 0.854902 0 0 0 1 0"/>
<feBlend mode="normal" in2="shape" result="effect2_innerShadow_2002_1607"/>
<feColorMatrix in="SourceAlpha" type="matrix" values="0 0 0 0 0 0 0 0 0 0 0 0 0 0 0 0 0 0 127 0" result="hardAlpha"/>
<feMorphology radius="3" operator="erode" in="SourceAlpha" result="effect3_innerShadow_2002_1607"/>
<feOffset dx="-2" dy="3"/>
<feGaussianBlur stdDeviation="2"/>
<feComposite in2="hardAlpha" operator="arithmetic" k2="-1" k3="1"/>
<feColorMatrix type="matrix" values="0 0 0 0 0.972549 0 0 0 0 0.819608 0 0 0 0 0.623529 0 0 0 1 0"/>
<feBlend mode="normal" in2="effect2_innerShadow_2002_1607" result="effect3_innerShadow_2002_1607"/>
</filter>
<filter id="filter6_dii_2002_1607" x="1269" y="896" width="38" height="40" filterUnits="userSpaceOnUse" color-interpolation-filters="sRGB">
<feFlood flood-opacity="0" result="BackgroundImageFix"/>
<feColorMatrix in="SourceAlpha" type="matrix" values="0 0 0 0 0 0 0 0 0 0 0 0 0 0 0 0 0 0 127 0" result="hardAlpha"/>
<feOffset dy="2"/>
<feGaussianBlur stdDeviation="2"/>
<feComposite in2="hardAlpha" operator="out"/>
<feColorMatrix type="matrix" values="0 0 0 0 0 0 0 0 0 0 0 0 0 0 0 0 0 0 0.75 0"/>
<feBlend mode="normal" in2="BackgroundImageFix" result="effect1_dropShadow_2002_1607"/>
<feBlend mode="normal" in="SourceGraphic" in2="effect1_dropShadow_2002_1607" result="shape"/>
<feColorMatrix in="SourceAlpha" type="matrix" values="0 0 0 0 0 0 0 0 0 0 0 0 0 0 0 0 0 0 127 0" result="hardAlpha"/>
<feOffset dx="5" dy="-6"/>
<feGaussianBlur stdDeviation="2"/>
<feComposite in2="hardAlpha" operator="arithmetic" k2="-1" k3="1"/>
<feColorMatrix type="matrix" values="0 0 0 0 0.992157 0 0 0 0 0.960784 0 0 0 0 0.854902 0 0 0 1 0"/>
<feBlend mode="normal" in2="shape" result="effect2_innerShadow_2002_1607"/>
<feColorMatrix in="SourceAlpha" type="matrix" values="0 0 0 0 0 0 0 0 0 0 0 0 0 0 0 0 0 0 127 0" result="hardAlpha"/>
<feMorphology radius="3" operator="erode" in="SourceAlpha" result="effect3_innerShadow_2002_1607"/>
<feOffset dx="-2" dy="3"/>
<feGaussianBlur stdDeviation="2"/>
<feComposite in2="hardAlpha" operator="arithmetic" k2="-1" k3="1"/>
<feColorMatrix type="matrix" values="0 0 0 0 0.972549 0 0 0 0 0.819608 0 0 0 0 0.623529 0 0 0 1 0"/>
<feBlend mode="normal" in2="effect2_innerShadow_2002_1607" result="effect3_innerShadow_2002_1607"/>
</filter>
<filter id="filter7_dii_2002_1607" x="181" y="896" width="38" height="40" filterUnits="userSpaceOnUse" color-interpolation-filters="sRGB">
<feFlood flood-opacity="0" result="BackgroundImageFix"/>
<feColorMatrix in="SourceAlpha" type="matrix" values="0 0 0 0 0 0 0 0 0 0 0 0 0 0 0 0 0 0 127 0" result="hardAlpha"/>
<feOffset dy="2"/>
<feGaussianBlur stdDeviation="2"/>
<feComposite in2="hardAlpha" operator="out"/>
<feColorMatrix type="matrix" values="0 0 0 0 0 0 0 0 0 0 0 0 0 0 0 0 0 0 0.75 0"/>
<feBlend mode="normal" in2="BackgroundImageFix" result="effect1_dropShadow_2002_1607"/>
<feBlend mode="normal" in="SourceGraphic" in2="effect1_dropShadow_2002_1607" result="shape"/>
<feColorMatrix in="SourceAlpha" type="matrix" values="0 0 0 0 0 0 0 0 0 0 0 0 0 0 0 0 0 0 127 0" result="hardAlpha"/>
<feOffset dx="5" dy="-6"/>
<feGaussianBlur stdDeviation="2"/>
<feComposite in2="hardAlpha" operator="arithmetic" k2="-1" k3="1"/>
<feColorMatrix type="matrix" values="0 0 0 0 0.992157 0 0 0 0 0.960784 0 0 0 0 0.854902 0 0 0 1 0"/>
<feBlend mode="normal" in2="shape" result="effect2_innerShadow_2002_1607"/>
<feColorMatrix in="SourceAlpha" type="matrix" values="0 0 0 0 0 0 0 0 0 0 0 0 0 0 0 0 0 0 127 0" result="hardAlpha"/>
<feMorphology radius="3" operator="erode" in="SourceAlpha" result="effect3_innerShadow_2002_1607"/>
<feOffset dx="-2" dy="3"/>
<feGaussianBlur stdDeviation="2"/>
<feComposite in2="hardAlpha" operator="arithmetic" k2="-1" k3="1"/>
<feColorMatrix type="matrix" values="0 0 0 0 0.972549 0 0 0 0 0.819608 0 0 0 0 0.623529 0 0 0 1 0"/>
<feBlend mode="normal" in2="effect2_innerShadow_2002_1607" result="effect3_innerShadow_2002_1607"/>
</filter>
<filter id="filter8_ii_2002_1607" x="541" y="1089" width="222" height="44" filterUnits="userSpaceOnUse" color-interpolation-filters="sRGB">
<feFlood flood-opacity="0" result="BackgroundImageFix"/>
<feBlend mode="normal" in="SourceGraphic" in2="BackgroundImageFix" result="shape"/>
<feColorMatrix in="SourceAlpha" type="matrix" values="0 0 0 0 0 0 0 0 0 0 0 0 0 0 0 0 0 0 127 0" result="hardAlpha"/>
<feMorphology radius="4" operator="erode" in="SourceAlpha" result="effect1_innerShadow_2002_1607"/>
<feOffset dx="-2" dy="2"/>
<feGaussianBlur stdDeviation="1"/>
<feComposite in2="hardAlpha" operator="arithmetic" k2="-1" k3="1"/>
<feColorMatrix type="matrix" values="0 0 0 0 0.607843 0 0 0 0 0.643137 0 0 0 0 0.654902 0 0 0 0.4 0"/>
<feBlend mode="normal" in2="shape" result="effect1_innerShadow_2002_1607"/>
<feColorMatrix in="SourceAlpha" type="matrix" values="0 0 0 0 0 0 0 0 0 0 0 0 0 0 0 0 0 0 127 0" result="hardAlpha"/>
<feMorphology radius="4" operator="erode" in="SourceAlpha" result="effect2_innerShadow_2002_1607"/>
<feOffset dx="2" dy="-2"/>
<feGaussianBlur stdDeviation="1"/>
<feComposite in2="hardAlpha" operator="arithmetic" k2="-1" k3="1"/>
<feColorMatrix type="matrix" values="0 0 0 0 0 0 0 0 0 0 0 0 0 0 0 0 0 0 0.45 0"/>
<feBlend mode="normal" in2="effect1_innerShadow_2002_1607" result="effect2_innerShadow_2002_1607"/>
</filter>
<filter id="filter9_ii_2002_1607" x="783" y="1089" width="164" height="44" filterUnits="userSpaceOnUse" color-interpolation-filters="sRGB">
<feFlood flood-opacity="0" result="BackgroundImageFix"/>
<feBlend mode="normal" in="SourceGraphic" in2="BackgroundImageFix" result="shape"/>
<feColorMatrix in="SourceAlpha" type="matrix" values="0 0 0 0 0 0 0 0 0 0 0 0 0 0 0 0 0 0 127 0" result="hardAlpha"/>
<feMorphology radius="4" operator="erode" in="SourceAlpha" result="effect1_innerShadow_2002_1607"/>
<feOffset dx="-2" dy="2"/>
<feGaussianBlur stdDeviation="1"/>
<feComposite in2="hardAlpha" operator="arithmetic" k2="-1" k3="1"/>
<feColorMatrix type="matrix" values="0 0 0 0 0.607843 0 0 0 0 0.643137 0 0 0 0 0.654902 0 0 0 0.4 0"/>
<feBlend mode="normal" in2="shape" result="effect1_innerShadow_2002_1607"/>
<feColorMatrix in="SourceAlpha" type="matrix" values="0 0 0 0 0 0 0 0 0 0 0 0 0 0 0 0 0 0 127 0" result="hardAlpha"/>
<feMorphology radius="4" operator="erode" in="SourceAlpha" result="effect2_innerShadow_2002_1607"/>
<feOffset dx="2" dy="-2"/>
<feGaussianBlur stdDeviation="1"/>
<feComposite in2="hardAlpha" operator="arithmetic" k2="-1" k3="1"/>
<feColorMatrix type="matrix" values="0 0 0 0 0 0 0 0 0 0 0 0 0 0 0 0 0 0 0.45 0"/>
<feBlend mode="normal" in2="effect1_innerShadow_2002_1607" result="effect2_innerShadow_2002_1607"/>
</filter>
<radialGradient id="paint0_radial_2002_1607" cx="0" cy="0" r="1" gradientUnits="userSpaceOnUse" gradientTransform="translate(744 1024) rotate(90) scale(1024 620)">
<stop stop-opacity="0"/>
<stop offset="1"/>
</radialGradient>
<linearGradient id="paint1_linear_2002_1607" x1="5.02065e-06" y1="185" x2="1240" y2="185" gradientUnits="userSpaceOnUse">
<stop/>
<stop offset="0.1875" stop-opacity="0.318976"/>
<stop offset="0.497107" stop-opacity="0"/>
<stop offset="0.828125" stop-opacity="0.192174"/>
<stop offset="1"/>
</linearGradient>
<radialGradient id="paint2_radial_2002_1607" cx="0" cy="0" r="1" gradientUnits="userSpaceOnUse" gradientTransform="translate(849.009 727.7) rotate(98.2525) scale(40.4466)">
<stop stop-color="#FBF4E8"/>
<stop offset="1" stop-color="#E2C9B0"/>
</radialGradient>
<radialGradient id="paint3_radial_2002_1607" cx="0" cy="0" r="1" gradientUnits="userSpaceOnUse" gradientTransform="translate(843.203 734.728) rotate(90) scale(33)">
<stop offset="0.854167" stop-color="#D5CBBD"/>
<stop offset="0.875" stop-color="#E9E3D6"/>
<stop offset="0.927083" stop-color="#E4DDCF"/>
<stop offset="0.956402" stop-color="#EBE5D8"/>
<stop offset="1" stop-color="#D6D5D5"/>
</radialGradient>
<radialGradient id="paint4_radial_2002_1607" cx="0" cy="0" r="1" gradientUnits="userSpaceOnUse" gradientTransform="translate(760.384 819.825) rotate(98.2525) scale(123.178)">
<stop stop-color="#F3D0A2"/>
<stop offset="1" stop-color="#EDB072"/>
</radialGradient>
<radialGradient id="paint5_radial_2002_1607" cx="0" cy="0" r="1" gradientUnits="userSpaceOnUse" gradientTransform="translate(742.703 841.228) rotate(90) scale(100.5)">
<stop offset="0.854167" stop-color="#D5CBBD"/>
<stop offset="0.875" stop-color="#E9E3D6"/>
<stop offset="0.927083" stop-color="#E4DDCF"/>
<stop offset="0.956402" stop-color="#EBE5D8"/>
<stop offset="1" stop-color="#C7AE9D"/>
</radialGradient>
<radialGradient id="paint6_angular_2002_1607" cx="0" cy="0" r="1" gradientUnits="userSpaceOnUse" gradientTransform="translate(1288 1134) rotate(-49.1446) scale(13.9767 13.8616)">
<stop offset="0.698529" stop-color="#ECBD7D"/>
<stop offset="1" stop-color="#F4F5EB"/>
</radialGradient>
<radialGradient id="paint7_angular_2002_1607" cx="0" cy="0" r="1" gradientUnits="userSpaceOnUse" gradientTransform="translate(200 1134) rotate(-49.1446) scale(13.9767 13.8616)">
<stop offset="0.698529" stop-color="#ECBD7D"/>
<stop offset="1" stop-color="#F4F5EB"/>
</radialGradient>
<radialGradient id="paint8_angular_2002_1607" cx="0" cy="0" r="1" gradientUnits="userSpaceOnUse" gradientTransform="translate(1288 915) rotate(-49.1446) scale(13.9767 13.8616)">
<stop offset="0.698529" stop-color="#ECBD7D"/>
<stop offset="1" stop-color="#F4F5EB"/>
</radialGradient>
<radialGradient id="paint9_angular_2002_1607" cx="0" cy="0" r="1" gradientUnits="userSpaceOnUse" gradientTransform="translate(200 915) rotate(-49.1446) scale(13.9767 13.8616)">
<stop offset="0.698529" stop-color="#ECBD7D"/>
<stop offset="1" stop-color="#F4F5EB"/>
</radialGradient>
</defs>
</svg>
