<svg width="1456" height="2048" viewBox="0 0 1456 2048" fill="none" xmlns="http://www.w3.org/2000/svg">
<g style="mix-blend-mode:multiply" opacity="0" filter="url(#filter0_b_2002_1606)">
<rect x="124" width="1240" height="2048" fill="#00000"/>
<rect x="124" width="1240" height="2048" fill="url(#paint0_radial_2002_1606)" fill-opacity="0.5"/>
</g>
<mask id="path-2-inside-1_2002_1606" fill="white">
<path d="M210 824H1278V1225H210V824Z"/>
</mask>
<path d="M210 1226H211.993V1224H210V1226ZM223.948 1226H227.933V1224H223.948V1226ZM239.888 1226H243.873V1224H239.888V1226ZM255.828 1226H259.813V1224H255.828V1226ZM271.769 1226H275.754V1224H271.769V1226ZM287.709 1226H291.694V1224H287.709V1226ZM303.649 1226H307.634V1224H303.649V1226ZM319.59 1226H323.575V1224H319.59V1226ZM335.53 1226H339.515V1224H335.53V1226ZM351.47 1226H355.455V1224H351.47V1226ZM367.41 1226H371.396V1224H367.41V1226ZM383.351 1226H387.336V1224H383.351V1226ZM399.291 1226H403.276V1224H399.291V1226ZM415.231 1226H419.216V1224H415.231V1226ZM431.172 1226H435.157V1224H431.172V1226ZM447.112 1226H451.097V1224H447.112V1226ZM463.052 1226H467.037V1224H463.052V1226ZM478.993 1226H482.978V1224H478.993V1226ZM494.933 1226H498.918V1224H494.933V1226ZM510.873 1226H514.858V1224H510.873V1226ZM526.814 1226H530.799V1224H526.814V1226ZM542.754 1226H546.739V1224H542.754V1226ZM558.694 1226H562.679V1224H558.694V1226ZM574.634 1226H578.62V1224H574.634V1226ZM590.575 1226H594.56V1224H590.575V1226ZM606.515 1226H610.5V1224H606.515V1226ZM622.455 1226H626.44V1224H622.455V1226ZM638.396 1226H642.381V1224H638.396V1226ZM654.336 1226H658.321V1224H654.336V1226ZM670.276 1226H674.261V1224H670.276V1226ZM686.217 1226H690.202V1224H686.217V1226ZM702.157 1226H706.142V1224H702.157V1226ZM718.097 1226H722.082V1224H718.097V1226ZM734.037 1226H738.023V1224H734.037V1226ZM749.978 1226H753.963V1224H749.978V1226ZM765.918 1226H769.903V1224H765.918V1226ZM781.858 1226H785.843V1224H781.858V1226ZM797.798 1226H801.784V1224H797.798V1226ZM813.739 1226H817.724V1224H813.739V1226ZM829.679 1226H833.664V1224H829.679V1226ZM845.619 1226H849.604V1224H845.619V1226ZM861.559 1226H865.544V1224H861.559V1226ZM877.5 1226H881.485V1224H877.5V1226ZM893.44 1226H897.425V1224H893.44V1226ZM909.38 1226H913.365V1224H909.38V1226ZM925.32 1226H929.305V1224H925.32V1226ZM941.261 1226H945.246V1224H941.261V1226ZM957.201 1226H961.186V1224H957.201V1226ZM973.141 1226H977.126V1224H973.141V1226ZM989.081 1226H993.066V1224H989.081V1226ZM1005.02 1226H1009.01V1224H1005.02V1226ZM1020.96 1226H1024.95V1224H1020.96V1226ZM1036.9 1226H1040.89V1224H1036.9V1226ZM1052.84 1226H1056.83V1224H1052.84V1226ZM1068.78 1226H1072.77V1224H1068.78V1226ZM1084.72 1226H1088.71V1224H1084.72V1226ZM1100.66 1226H1104.65V1224H1100.66V1226ZM1116.6 1226H1120.59V1224H1116.6V1226ZM1132.54 1226H1136.53V1224H1132.54V1226ZM1148.48 1226H1152.47V1224H1148.48V1226ZM1164.42 1226H1168.41V1224H1164.42V1226ZM1180.36 1226H1184.35V1224H1180.36V1226ZM1196.3 1226H1200.29V1224H1196.3V1226ZM1212.24 1226H1216.23V1224H1212.24V1226ZM1228.19 1226H1232.17V1224H1228.19V1226ZM1244.13 1226H1248.11V1224H1244.13V1226ZM1260.07 1226H1264.05V1224H1260.07V1226ZM1276.01 1226H1278V1224H1276.01V1226ZM1278 823H1276.01V825H1278V823ZM1264.05 823H1260.07V825H1264.05V823ZM1248.11 823H1244.13V825H1248.11V823ZM1232.17 823H1228.19V825H1232.17V823ZM1216.23 823H1212.25V825H1216.23V823ZM1200.29 823H1196.31V825H1200.29V823ZM1184.35 823H1180.37V825H1184.35V823ZM1168.41 823H1164.43V825H1168.41V823ZM1152.47 823H1148.49V825H1152.47V823ZM1136.53 823H1132.54V825H1136.53V823ZM1120.59 823H1116.6V825H1120.59V823ZM1104.65 823H1100.66V825H1104.65V823ZM1088.71 823H1084.72V825H1088.71V823ZM1072.77 823H1068.78V825H1072.77V823ZM1056.83 823H1052.84V825H1056.83V823ZM1040.89 823H1036.9V825H1040.89V823ZM1024.95 823H1020.96V825H1024.95V823ZM1009.01 823H1005.02V825H1009.01V823ZM993.067 823H989.082V825H993.067V823ZM977.127 823H973.142V825H977.127V823ZM961.186 823H957.201V825H961.186V823ZM945.246 823H941.261V825H945.246V823ZM929.306 823H925.321V825H929.306V823ZM913.366 823H909.38V825H913.366V823ZM897.425 823H893.44V825H897.425V823ZM881.485 823H877.5V825H881.485V823ZM865.545 823H861.56V825H865.545V823ZM849.604 823H845.619V825H849.604V823ZM833.664 823H829.679V825H833.664V823ZM817.724 823H813.739V825H817.724V823ZM801.783 823H797.798V825H801.783V823ZM785.843 823H781.858V825H785.843V823ZM769.903 823H765.918V825H769.903V823ZM753.963 823H749.977V825H753.963V823ZM738.022 823H734.037V825H738.022V823ZM722.082 823H718.097V825H722.082V823ZM706.142 823H702.157V825H706.142V823ZM690.202 823H686.217V825H690.202V823ZM674.261 823H670.276V825H674.261V823ZM658.321 823H654.336V825H658.321V823ZM642.381 823H638.396V825H642.381V823ZM626.441 823H622.456V825H626.441V823ZM610.5 823H606.515V825H610.5V823ZM594.56 823H590.575V825H594.56V823ZM578.62 823H574.635V825H578.62V823ZM562.68 823H558.695V825H562.68V823ZM546.739 823H542.754V825H546.739V823ZM530.799 823H526.814V825H530.799V823ZM514.859 823H510.874V825H514.859V823ZM498.919 823H494.934V825H498.919V823ZM482.978 823H478.993V825H482.978V823ZM467.038 823H463.053V825H467.038V823ZM451.098 823H447.113V825H451.098V823ZM435.158 823H431.173V825H435.158V823ZM419.217 823H415.232V825H419.217V823ZM403.277 823H399.292V825H403.277V823ZM387.337 823H383.352V825H387.337V823ZM371.397 823H367.412V825H371.397V823ZM355.456 823H351.471V825H355.456V823ZM339.516 823H335.531V825H339.516V823ZM323.576 823H319.591V825H323.576V823ZM307.636 823H303.651V825H307.636V823ZM291.695 823H287.71V825H291.695V823ZM275.755 823H271.77V825H275.755V823ZM259.815 823H255.83V825H259.815V823ZM243.875 823H239.89V825H243.875V823ZM227.934 823H223.949V825H227.934V823ZM211.994 823H210V825H211.994V823ZM210 1227H211.993V1223H210V1227ZM223.948 1227H227.933V1223H223.948V1227ZM239.888 1227H243.873V1223H239.888V1227ZM255.828 1227H259.813V1223H255.828V1227ZM271.769 1227H275.754V1223H271.769V1227ZM287.709 1227H291.694V1223H287.709V1227ZM303.649 1227H307.634V1223H303.649V1227ZM319.59 1227H323.575V1223H319.59V1227ZM335.53 1227H339.515V1223H335.53V1227ZM351.47 1227H355.455V1223H351.47V1227ZM367.41 1227H371.396V1223H367.41V1227ZM383.351 1227H387.336V1223H383.351V1227ZM399.291 1227H403.276V1223H399.291V1227ZM415.231 1227H419.216V1223H415.231V1227ZM431.172 1227H435.157V1223H431.172V1227ZM447.112 1227H451.097V1223H447.112V1227ZM463.052 1227H467.037V1223H463.052V1227ZM478.993 1227H482.978V1223H478.993V1227ZM494.933 1227H498.918V1223H494.933V1227ZM510.873 1227H514.858V1223H510.873V1227ZM526.814 1227H530.799V1223H526.814V1227ZM542.754 1227H546.739V1223H542.754V1227ZM558.694 1227H562.679V1223H558.694V1227ZM574.634 1227H578.62V1223H574.634V1227ZM590.575 1227H594.56V1223H590.575V1227ZM606.515 1227H610.5V1223H606.515V1227ZM622.455 1227H626.44V1223H622.455V1227ZM638.396 1227H642.381V1223H638.396V1227ZM654.336 1227H658.321V1223H654.336V1227ZM670.276 1227H674.261V1223H670.276V1227ZM686.217 1227H690.202V1223H686.217V1227ZM702.157 1227H706.142V1223H702.157V1227ZM718.097 1227H722.082V1223H718.097V1227ZM734.037 1227H738.023V1223H734.037V1227ZM749.978 1227H753.963V1223H749.978V1227ZM765.918 1227H769.903V1223H765.918V1227ZM781.858 1227H785.843V1223H781.858V1227ZM797.798 1227H801.784V1223H797.798V1227ZM813.739 1227H817.724V1223H813.739V1227ZM829.679 1227H833.664V1223H829.679V1227ZM845.619 1227H849.604V1223H845.619V1227ZM861.559 1227H865.544V1223H861.559V1227ZM877.5 1227H881.485V1223H877.5V1227ZM893.44 1227H897.425V1223H893.44V1227ZM909.38 1227H913.365V1223H909.38V1227ZM925.32 1227H929.305V1223H925.32V1227ZM941.261 1227H945.246V1223H941.261V1227ZM957.201 1227H961.186V1223H957.201V1227ZM973.141 1227H977.126V1223H973.141V1227ZM989.081 1227H993.066V1223H989.081V1227ZM1005.02 1227H1009.01V1223H1005.02V1227ZM1020.96 1227H1024.95V1223H1020.96V1227ZM1036.9 1227H1040.89V1223H1036.9V1227ZM1052.84 1227H1056.83V1223H1052.84V1227ZM1068.78 1227H1072.77V1223H1068.78V1227ZM1084.72 1227H1088.71V1223H1084.72V1227ZM1100.66 1227H1104.65V1223H1100.66V1227ZM1116.6 1227H1120.59V1223H1116.6V1227ZM1132.54 1227H1136.53V1223H1132.54V1227ZM1148.48 1227H1152.47V1223H1148.48V1227ZM1164.42 1227H1168.41V1223H1164.42V1227ZM1180.36 1227H1184.35V1223H1180.36V1227ZM1196.3 1227H1200.29V1223H1196.3V1227ZM1212.24 1227H1216.23V1223H1212.24V1227ZM1228.19 1227H1232.17V1223H1228.19V1227ZM1244.13 1227H1248.11V1223H1244.13V1227ZM1260.07 1227H1264.05V1223H1260.07V1227ZM1276.01 1227H1278V1223H1276.01V1227ZM1278 822H1276.01V826H1278V822ZM1264.05 822H1260.07V826H1264.05V822ZM1248.11 822H1244.13V826H1248.11V822ZM1232.17 822H1228.19V826H1232.17V822ZM1216.23 822H1212.25V826H1216.23V822ZM1200.29 822H1196.31V826H1200.29V822ZM1184.35 822H1180.37V826H1184.35V822ZM1168.41 822H1164.43V826H1168.41V822ZM1152.47 822H1148.49V826H1152.47V822ZM1136.53 822H1132.54V826H1136.53V822ZM1120.59 822H1116.6V826H1120.59V822ZM1104.65 822H1100.66V826H1104.65V822ZM1088.71 822H1084.72V826H1088.71V822ZM1072.77 822H1068.78V826H1072.77V822ZM1056.83 822H1052.84V826H1056.83V822ZM1040.89 822H1036.9V826H1040.89V822ZM1024.95 822H1020.96V826H1024.95V822ZM1009.01 822H1005.02V826H1009.01V822ZM993.067 822H989.082V826H993.067V822ZM977.127 822H973.142V826H977.127V822ZM961.186 822H957.201V826H961.186V822ZM945.246 822H941.261V826H945.246V822ZM929.306 822H925.321V826H929.306V822ZM913.366 822H909.38V826H913.366V822ZM897.425 822H893.44V826H897.425V822ZM881.485 822H877.5V826H881.485V822ZM865.545 822H861.56V826H865.545V822ZM849.604 822H845.619V826H849.604V822ZM833.664 822H829.679V826H833.664V822ZM817.724 822H813.739V826H817.724V822ZM801.783 822H797.798V826H801.783V822ZM785.843 822H781.858V826H785.843V822ZM769.903 822H765.918V826H769.903V822ZM753.963 822H749.977V826H753.963V822ZM738.022 822H734.037V826H738.022V822ZM722.082 822H718.097V826H722.082V822ZM706.142 822H702.157V826H706.142V822ZM690.202 822H686.217V826H690.202V822ZM674.261 822H670.276V826H674.261V822ZM658.321 822H654.336V826H658.321V822ZM642.381 822H638.396V826H642.381V822ZM626.441 822H622.456V826H626.441V822ZM610.5 822H606.515V826H610.5V822ZM594.56 822H590.575V826H594.56V822ZM578.62 822H574.635V826H578.62V822ZM562.68 822H558.695V826H562.68V822ZM546.739 822H542.754V826H546.739V822ZM530.799 822H526.814V826H530.799V822ZM514.859 822H510.874V826H514.859V822ZM498.919 822H494.934V826H498.919V822ZM482.978 822H478.993V826H482.978V822ZM467.038 822H463.053V826H467.038V822ZM451.098 822H447.113V826H451.098V822ZM435.158 822H431.173V826H435.158V822ZM419.217 822H415.232V826H419.217V822ZM403.277 822H399.292V826H403.277V822ZM387.337 822H383.352V826H387.337V822ZM371.397 822H367.412V826H371.397V822ZM355.456 822H351.471V826H355.456V822ZM339.516 822H335.531V826H339.516V822ZM323.576 822H319.591V826H323.576V822ZM307.636 822H303.651V826H307.636V822ZM291.695 822H287.71V826H291.695V822ZM275.755 822H271.77V826H275.755V822ZM259.815 822H255.83V826H259.815V822ZM243.875 822H239.89V826H243.875V822ZM227.934 822H223.949V826H227.934V822ZM211.994 822H210V826H211.994V822Z" fill="#EDD2A0" mask="url(#path-2-inside-1_2002_1606)"/>
<mask id="path-4-inside-2_2002_1606" fill="white">
<path d="M525 808H963V1241H525V808Z"/>
</mask>
<path d="M525 810H963V806H525V810ZM963 1239H525V1243H963V1239Z" fill="#EDD2A0" mask="url(#path-4-inside-2_2002_1606)"/>
<mask id="path-6-inside-3_2002_1606" fill="white">
<path d="M424 824H1064V1225H424V824Z"/>
</mask>
<path d="M424 826H1064V822H424V826ZM1064 1223H424V1227H1064V1223Z" fill="#EDD2A0" mask="url(#path-6-inside-3_2002_1606)"/>
<g filter="url(#filter1_d_2002_1606)">
<rect width="1240" height="371" transform="translate(124 839)" fill="#C6D4D9"/>
<rect width="1240" height="371" transform="translate(124 839)" fill="url(#paint1_linear_2002_1606)" fill-opacity="0.2"/>
<rect x="155" y="870" width="1178" height="309" rx="47" stroke="#828C91" stroke-width="2" stroke-dasharray="4 12"/>
<rect x="155" y="870" width="1178" height="309" rx="47" stroke="#828C91" stroke-width="2" stroke-dasharray="74 102"/>
<path d="M516.315 1006.34C516.145 1004.46 515.387 1003 514.04 1001.96C512.71 1000.91 510.81 1000.38 508.338 1000.38C506.702 1000.38 505.338 1000.59 504.247 1001.02C503.156 1001.44 502.338 1002.03 501.793 1002.78C501.247 1003.51 500.966 1004.36 500.949 1005.31C500.915 1006.1 501.068 1006.79 501.409 1007.38C501.767 1007.98 502.279 1008.51 502.943 1008.97C503.625 1009.41 504.443 1009.8 505.398 1010.14C506.352 1010.49 507.426 1010.78 508.619 1011.04L513.119 1012.06C515.71 1012.62 517.994 1013.38 519.972 1014.31C521.966 1015.25 523.637 1016.37 524.983 1017.66C526.347 1018.96 527.378 1020.45 528.077 1022.14C528.776 1023.82 529.134 1025.72 529.151 1027.81C529.134 1031.12 528.298 1033.96 526.645 1036.33C524.992 1038.7 522.614 1040.51 519.512 1041.77C516.426 1043.03 512.702 1043.66 508.338 1043.66C503.958 1043.66 500.139 1043.01 496.884 1041.7C493.628 1040.38 491.097 1038.39 489.29 1035.71C487.483 1033.04 486.554 1029.65 486.503 1025.56H498.622C498.725 1027.25 499.176 1028.66 499.977 1029.78C500.779 1030.91 501.878 1031.76 503.276 1032.34C504.69 1032.92 506.327 1033.21 508.185 1033.21C509.889 1033.21 511.338 1032.98 512.531 1032.52C513.742 1032.06 514.671 1031.42 515.318 1030.6C515.966 1029.78 516.298 1028.84 516.315 1027.79C516.298 1026.8 515.992 1025.95 515.395 1025.26C514.798 1024.54 513.878 1023.93 512.634 1023.41C511.406 1022.89 509.838 1022.4 507.929 1021.96L502.458 1020.68C497.923 1019.64 494.352 1017.96 491.744 1015.64C489.136 1013.31 487.841 1010.15 487.858 1006.18C487.841 1002.94 488.71 1000.11 490.466 997.668C492.222 995.23 494.651 993.33 497.753 991.966C500.855 990.602 504.392 989.92 508.364 989.92C512.421 989.92 515.94 990.611 518.923 991.991C521.923 993.355 524.25 995.273 525.904 997.744C527.557 1000.22 528.401 1003.08 528.435 1006.34H516.315ZM548.23 1000.91V990.636H592.488V1000.91H576.61V1043H564.133V1000.91H548.23ZM617.857 1043H604.255L621.922 990.636H638.772L656.439 1043H642.837L630.539 1003.83H630.13L617.857 1043ZM616.042 1022.39H644.473V1032.01H616.042V1022.39ZM676.477 1043V990.636H698.108C702.028 990.636 705.412 991.344 708.258 992.759C711.122 994.156 713.329 996.168 714.881 998.793C716.432 1001.4 717.207 1004.49 717.207 1008.07C717.207 1011.7 716.415 1014.79 714.829 1017.33C713.244 1019.85 710.994 1021.78 708.079 1023.11C705.165 1024.42 701.713 1025.08 697.724 1025.08H684.045V1015.11H695.372C697.281 1015.11 698.875 1014.86 700.153 1014.36C701.449 1013.85 702.429 1013.09 703.094 1012.06C703.758 1011.02 704.091 1009.69 704.091 1008.07C704.091 1006.45 703.758 1005.12 703.094 1004.06C702.429 1002.99 701.449 1002.18 700.153 1001.66C698.858 1001.11 697.264 1000.84 695.372 1000.84H689.133V1043H676.477ZM705.957 1019.07L718.997 1043H705.19L692.406 1019.07H705.957ZM780.972 1043L765.733 990.636H779.719L787.619 1024.95H788.054L797.08 990.636H808.483L817.509 1025.03H817.943L825.869 990.636H839.83L824.617 1043H812.421L802.986 1011.24H802.577L793.142 1043H780.972ZM872.115 990.636V1043H859.458V990.636H872.115ZM939.025 990.636V1043H928.287L907.449 1012.78H907.116V1043H894.46V990.636H905.352L925.96 1020.81H926.395V990.636H939.025ZM989.687 1006.34C989.517 1004.46 988.758 1003 987.412 1001.96C986.082 1000.91 984.182 1000.38 981.71 1000.38C980.074 1000.38 978.71 1000.59 977.619 1001.02C976.528 1001.44 975.71 1002.03 975.165 1002.78C974.619 1003.51 974.338 1004.36 974.321 1005.31C974.287 1006.1 974.44 1006.79 974.781 1007.38C975.139 1007.98 975.65 1008.51 976.315 1008.97C976.997 1009.41 977.815 1009.8 978.77 1010.14C979.724 1010.49 980.798 1010.78 981.991 1011.04L986.491 1012.06C989.082 1012.62 991.366 1013.38 993.344 1014.31C995.338 1015.25 997.008 1016.37 998.355 1017.66C999.719 1018.96 1000.75 1020.45 1001.45 1022.14C1002.15 1023.82 1002.51 1025.72 1002.52 1027.81C1002.51 1031.12 1001.67 1033.96 1000.02 1036.33C998.364 1038.7 995.986 1040.51 992.883 1041.77C989.798 1043.03 986.074 1043.66 981.71 1043.66C977.329 1043.66 973.511 1043.01 970.256 1041.7C967 1040.38 964.469 1038.39 962.662 1035.71C960.855 1033.04 959.926 1029.65 959.875 1025.56H971.994C972.096 1027.25 972.548 1028.66 973.349 1029.78C974.15 1030.91 975.25 1031.76 976.648 1032.34C978.062 1032.92 979.699 1033.21 981.557 1033.21C983.261 1033.21 984.71 1032.98 985.903 1032.52C987.114 1032.06 988.042 1031.42 988.69 1030.6C989.338 1029.78 989.67 1028.84 989.687 1027.79C989.67 1026.8 989.364 1025.95 988.767 1025.26C988.17 1024.54 987.25 1023.93 986.006 1023.41C984.778 1022.89 983.21 1022.4 981.301 1021.96L975.829 1020.68C971.295 1019.64 967.724 1017.96 965.116 1015.64C962.508 1013.31 961.213 1010.15 961.23 1006.18C961.213 1002.94 962.082 1000.11 963.838 997.668C965.594 995.23 968.023 993.33 971.125 991.966C974.227 990.602 977.764 989.92 981.736 989.92C985.792 989.92 989.312 990.611 992.295 991.991C995.295 993.355 997.622 995.273 999.275 997.744C1000.93 1000.22 1001.77 1003.08 1001.81 1006.34H989.687Z" fill="#4F5D64"/>
<g filter="url(#filter2_ii_2002_1606)">
<rect x="543" y="1091" width="218" height="40" rx="8" fill="#4F5D64"/>
<path d="M572.43 1103.45V1118H569.774L563.446 1108.85H563.339V1118H560.264V1103.45H562.963L569.241 1112.6H569.369V1103.45H572.43ZM580.971 1118V1103.45H590.772V1105.99H584.047V1109.46H590.268V1111.99H584.047V1115.46H590.801V1118H580.971ZM602.101 1103.45L605.034 1108.41H605.148L608.095 1103.45H611.568L607.129 1110.73L611.668 1118H608.131L605.148 1113.04H605.034L602.051 1118H598.528L603.081 1110.73L598.614 1103.45H602.101ZM618.96 1105.99V1103.45H630.906V1105.99H626.453V1118H623.413V1105.99H618.96ZM649.502 1118V1103.45H655.241C656.34 1103.45 657.277 1103.65 658.054 1104.04C658.835 1104.43 659.429 1104.98 659.836 1105.7C660.248 1106.41 660.454 1107.24 660.454 1108.21C660.454 1109.17 660.246 1110 659.829 1110.7C659.413 1111.39 658.809 1111.92 658.018 1112.29C657.232 1112.66 656.28 1112.84 655.163 1112.84H651.321V1110.37H654.666C655.253 1110.37 655.741 1110.29 656.129 1110.13C656.517 1109.97 656.806 1109.73 656.995 1109.41C657.19 1109.08 657.287 1108.68 657.287 1108.21C657.287 1107.72 657.19 1107.32 656.995 1106.98C656.806 1106.65 656.515 1106.4 656.122 1106.23C655.734 1106.06 655.243 1105.97 654.652 1105.97H652.578V1118H649.502ZM657.358 1111.38L660.973 1118H657.578L654.041 1111.38H657.358ZM681.994 1110.73C681.994 1112.31 681.693 1113.66 681.092 1114.78C680.495 1115.89 679.681 1116.74 678.649 1117.33C677.621 1117.91 676.466 1118.2 675.183 1118.2C673.89 1118.2 672.73 1117.91 671.703 1117.32C670.675 1116.73 669.863 1115.88 669.267 1114.77C668.67 1113.66 668.372 1112.31 668.372 1110.73C668.372 1109.14 668.67 1107.79 669.267 1106.68C669.863 1105.57 670.675 1104.72 671.703 1104.14C672.73 1103.55 673.89 1103.26 675.183 1103.26C676.466 1103.26 677.621 1103.55 678.649 1104.14C679.681 1104.72 680.495 1105.57 681.092 1106.68C681.693 1107.79 681.994 1109.14 681.994 1110.73ZM678.876 1110.73C678.876 1109.7 678.722 1108.83 678.414 1108.13C678.111 1107.42 677.683 1106.89 677.129 1106.52C676.575 1106.16 675.926 1105.98 675.183 1105.98C674.44 1105.98 673.791 1106.16 673.237 1106.52C672.683 1106.89 672.252 1107.42 671.944 1108.13C671.641 1108.83 671.49 1109.7 671.49 1110.73C671.49 1111.75 671.641 1112.62 671.944 1113.33C672.252 1114.03 672.683 1114.57 673.237 1114.93C673.791 1115.3 674.44 1115.48 675.183 1115.48C675.926 1115.48 676.575 1115.3 677.129 1114.93C677.683 1114.57 678.111 1114.03 678.414 1113.33C678.722 1112.62 678.876 1111.75 678.876 1110.73ZM699.256 1103.45H702.332V1112.9C702.332 1113.96 702.078 1114.89 701.572 1115.68C701.07 1116.48 700.367 1117.1 699.462 1117.55C698.558 1117.99 697.504 1118.21 696.302 1118.21C695.094 1118.21 694.039 1117.99 693.134 1117.55C692.23 1117.1 691.527 1116.48 691.025 1115.68C690.523 1114.89 690.272 1113.96 690.272 1112.9V1103.45H693.347V1112.64C693.347 1113.19 693.468 1113.68 693.71 1114.12C693.956 1114.55 694.301 1114.88 694.746 1115.13C695.192 1115.38 695.71 1115.5 696.302 1115.5C696.898 1115.5 697.417 1115.38 697.857 1115.13C698.302 1114.88 698.646 1114.55 698.887 1114.12C699.133 1113.68 699.256 1113.19 699.256 1112.64V1103.45ZM723.028 1103.45V1118H720.372L714.044 1108.85H713.937V1118H710.862V1103.45H713.561L719.839 1112.6H719.967V1103.45H723.028ZM736.725 1118H731.569V1103.45H736.768C738.231 1103.45 739.49 1103.75 740.546 1104.33C741.602 1104.91 742.414 1105.74 742.982 1106.82C743.555 1107.91 743.842 1109.2 743.842 1110.71C743.842 1112.23 743.555 1113.53 742.982 1114.62C742.414 1115.71 741.597 1116.54 740.532 1117.13C739.471 1117.71 738.202 1118 736.725 1118ZM734.644 1115.37H736.597C737.506 1115.37 738.271 1115.2 738.891 1114.88C739.516 1114.56 739.985 1114.05 740.298 1113.37C740.615 1112.68 740.773 1111.8 740.773 1110.71C740.773 1109.64 740.615 1108.76 740.298 1108.08C739.985 1107.4 739.519 1106.89 738.898 1106.57C738.278 1106.25 737.513 1106.09 736.604 1106.09H734.644V1115.37Z" fill="#EED2A1"/>
</g>
<g filter="url(#filter3_ii_2002_1606)">
<rect x="785" y="1091" width="160" height="40" rx="8" fill="#4F5D64"/>
<path d="M802.264 1118V1103.45H808.003C809.101 1103.45 810.039 1103.65 810.815 1104.04C811.597 1104.43 812.191 1104.98 812.598 1105.7C813.01 1106.41 813.216 1107.24 813.216 1108.21C813.216 1109.17 813.008 1110 812.591 1110.7C812.174 1111.39 811.571 1111.92 810.78 1112.29C809.994 1112.66 809.042 1112.84 807.925 1112.84H804.082V1110.37H807.428C808.015 1110.37 808.502 1110.29 808.891 1110.13C809.279 1109.97 809.568 1109.73 809.757 1109.41C809.951 1109.08 810.048 1108.68 810.048 1108.21C810.048 1107.72 809.951 1107.32 809.757 1106.98C809.568 1106.65 809.277 1106.4 808.884 1106.23C808.495 1106.06 808.005 1105.97 807.413 1105.97H805.339V1118H802.264ZM810.119 1111.38L813.734 1118H810.339L806.803 1111.38H810.119ZM821.389 1118V1103.45H831.19V1105.99H824.464V1109.46H830.686V1111.99H824.464V1115.46H831.219V1118H821.389ZM847.526 1107.64C847.469 1107.06 847.225 1106.62 846.794 1106.3C846.364 1105.99 845.779 1105.83 845.04 1105.83C844.538 1105.83 844.114 1105.9 843.769 1106.04C843.423 1106.18 843.158 1106.37 842.973 1106.62C842.793 1106.86 842.703 1107.14 842.703 1107.45C842.694 1107.71 842.748 1107.94 842.867 1108.13C842.99 1108.33 843.158 1108.5 843.371 1108.64C843.584 1108.78 843.83 1108.9 844.11 1109C844.389 1109.1 844.687 1109.19 845.005 1109.26L846.311 1109.57C846.946 1109.71 847.528 1109.9 848.059 1110.14C848.589 1110.37 849.048 1110.67 849.436 1111.01C849.825 1111.36 850.125 1111.76 850.338 1112.23C850.556 1112.7 850.667 1113.24 850.672 1113.85C850.667 1114.74 850.44 1115.51 849.99 1116.16C849.545 1116.81 848.901 1117.31 848.059 1117.67C847.221 1118.03 846.21 1118.21 845.026 1118.21C843.852 1118.21 842.829 1118.03 841.958 1117.67C841.091 1117.31 840.414 1116.77 839.926 1116.07C839.444 1115.36 839.19 1114.48 839.167 1113.43H842.142C842.176 1113.92 842.315 1114.33 842.561 1114.65C842.812 1114.98 843.146 1115.22 843.563 1115.39C843.984 1115.55 844.46 1115.63 844.99 1115.63C845.511 1115.63 845.963 1115.55 846.347 1115.4C846.735 1115.25 847.036 1115.04 847.249 1114.77C847.462 1114.5 847.569 1114.19 847.569 1113.84C847.569 1113.51 847.471 1113.24 847.277 1113.01C847.088 1112.79 846.809 1112.6 846.439 1112.45C846.075 1112.29 845.627 1112.15 845.097 1112.02L843.513 1111.62C842.287 1111.32 841.319 1110.86 840.608 1110.22C839.898 1109.59 839.545 1108.73 839.55 1107.66C839.545 1106.78 839.78 1106.01 840.253 1105.35C840.731 1104.69 841.387 1104.18 842.221 1103.81C843.054 1103.44 844.001 1103.26 845.061 1103.26C846.141 1103.26 847.083 1103.44 847.888 1103.81C848.698 1104.18 849.328 1104.69 849.777 1105.35C850.227 1106.01 850.459 1106.77 850.473 1107.64H847.526ZM858.187 1105.99V1103.45H870.133V1105.99H865.68V1118H862.64V1105.99H858.187ZM878.83 1118H875.534L880.556 1103.45H884.519L889.533 1118H886.238L882.594 1106.78H882.48L878.83 1118ZM878.624 1112.28H886.408V1114.68H878.624V1112.28ZM897.284 1118V1103.45H903.022C904.121 1103.45 905.058 1103.65 905.835 1104.04C906.616 1104.43 907.21 1104.98 907.618 1105.7C908.029 1106.41 908.235 1107.24 908.235 1108.21C908.235 1109.17 908.027 1110 907.61 1110.7C907.194 1111.39 906.59 1111.92 905.799 1112.29C905.013 1112.66 904.062 1112.84 902.944 1112.84H899.102V1110.37H902.447C903.034 1110.37 903.522 1110.29 903.91 1110.13C904.298 1109.97 904.587 1109.73 904.777 1109.41C904.971 1109.08 905.068 1108.68 905.068 1108.21C905.068 1107.72 904.971 1107.32 904.777 1106.98C904.587 1106.65 904.296 1106.4 903.903 1106.23C903.515 1106.06 903.025 1105.97 902.433 1105.97H900.359V1118H897.284ZM905.139 1111.38L908.754 1118H905.359L901.822 1111.38H905.139ZM915.855 1105.99V1103.45H927.801V1105.99H923.348V1118H920.308V1105.99H915.855Z" fill="#EED2A1"/>
</g>
</g>
<g filter="url(#filter4_dd_2002_1606)">
<path fill-rule="evenodd" clip-rule="evenodd" d="M800.026 819.089C810.22 795.222 829.945 760.622 845.369 738.344C846.546 736.644 843.307 733.356 841.604 734.528C819.406 749.808 785.786 769.93 762.021 781.067C755.746 763.072 749.594 740.161 746.122 722.464C745.724 720.439 740.877 720.402 740.486 722.426C737.068 740.146 731.427 763.059 725.655 781.29C701.795 771.536 665.595 751.086 642.587 735.2C640.891 734.029 637.591 737.279 638.757 738.978C654.853 762.425 676.332 798.66 686.869 822.48C669.213 828.466 647.332 834.238 630.287 837.536C628.263 837.928 628.24 842.775 630.265 843.172C647.863 846.615 670.582 852.261 688.763 858.04C678.827 881.939 658.463 917.788 642.632 940.656C641.455 942.356 644.693 945.644 646.396 944.472C668.791 929.057 702.811 908.713 726.61 897.639C732.664 915.338 738.522 937.312 741.878 954.415C742.276 956.441 747.123 956.478 747.514 954.453C750.816 937.337 756.191 915.377 761.756 897.47C785.605 907.125 822.215 927.783 845.414 943.8C847.11 944.971 850.41 941.721 849.243 940.022C832.726 915.96 810.539 878.433 800.326 854.673C818.118 848.59 840.408 842.691 857.713 839.343C859.738 838.951 859.761 834.104 857.735 833.707C840.391 830.314 818.072 824.78 800.026 819.089Z" fill="url(#paint2_radial_2002_1606)"/>
</g>
<circle cx="744" cy="838.75" r="96" stroke="url(#paint3_linear_2002_1606)" stroke-opacity="0.7" stroke-width="9" stroke-dasharray="3 18"/>
<g filter="url(#filter5_ii_2002_1606)">
<path d="M630.287 837.536C656.817 832.403 695.064 821.275 710.857 812.679C711.361 812.168 711.901 811.653 712.478 811.131C720.835 803.574 734.299 754.496 740.486 722.426C740.877 720.402 745.724 720.439 746.122 722.464C752.454 754.736 767.695 804.349 776.35 809.863C776.809 810.156 777.253 810.485 777.682 810.848C795.028 818.85 831.901 828.653 857.735 833.707C859.761 834.104 859.738 838.951 857.713 839.343C831.183 844.476 792.937 855.604 777.143 864.2C776.639 864.711 776.099 865.226 775.522 865.749C767.165 873.306 753.701 922.383 747.514 954.453C747.123 956.478 742.276 956.441 741.878 954.415C735.546 922.144 720.305 872.531 711.65 867.016C711.191 866.723 710.746 866.393 710.316 866.029C692.969 858.028 656.098 848.226 630.265 843.172C628.24 842.775 628.263 837.928 630.287 837.536Z" fill="url(#paint4_diamond_2002_1606)"/>
</g>
<g filter="url(#filter6_ii_2002_1606)">
<path d="M858.546 725.195C837.288 755.9 808.798 807.319 801.442 832.179C801.447 833.172 801.421 834.204 801.365 835.279C800.53 851.38 837.616 916.223 862.924 953.09C864.242 955.01 860.513 958.682 858.597 957.359C821.625 931.832 754.512 895.876 740.215 899.077C739.482 899.241 738.727 899.355 737.955 899.42C712.159 908.997 663.704 937.47 633.708 958.118C631.783 959.443 628.124 955.727 629.454 953.806C650.711 923.1 679.201 871.681 686.558 846.821C686.553 845.829 686.578 844.796 686.634 843.721C687.469 827.621 650.383 762.778 625.075 725.911C623.757 723.991 627.486 720.318 629.403 721.641C666.374 747.168 733.487 783.125 747.785 779.924C748.518 779.759 749.272 779.646 750.045 779.58C775.841 770.003 824.295 741.53 854.292 720.882C856.216 719.558 859.876 723.274 858.546 725.195Z" fill="url(#paint5_diamond_2002_1606)"/>
</g>
<g filter="url(#filter7_dii_2002_1606)">
<circle cx="744" cy="838.75" r="40.5" fill="url(#paint6_radial_2002_1606)"/>
<circle cx="744" cy="838.75" r="36" stroke="url(#paint7_radial_2002_1606)" stroke-width="9"/>
</g>
<path d="M724.654 817.937C731.068 822.99 738.841 826.343 745.57 831.001C748.169 832.801 750.223 835.003 752.366 837.335C755.845 841.124 761.471 849.489 761.471 855.348" stroke="#D6AF75" stroke-opacity="0.3" stroke-width="3" stroke-linecap="round"/>
<path d="M766.815 824.469C753.687 826.837 741.12 830.24 729.569 836.841C727.157 838.219 724.422 840.059 722.641 842.251C720.912 844.38 719.309 845.918 719.309 848.816" stroke="#D6AF75" stroke-opacity="0.3" stroke-width="3" stroke-linecap="round"/>
<g filter="url(#filter8_dii_2002_1606)">
<circle cx="1288" cy="1134" r="12" fill="#F9E5BF"/>
<circle cx="1288" cy="1134" r="13.5" stroke="url(#paint8_angular_2002_1606)" stroke-width="3"/>
</g>
<g filter="url(#filter9_dii_2002_1606)">
<circle cx="200" cy="1134" r="12" fill="#F9E5BF"/>
<circle cx="200" cy="1134" r="13.5" stroke="url(#paint9_angular_2002_1606)" stroke-width="3"/>
</g>
<g filter="url(#filter10_dii_2002_1606)">
<circle cx="1288" cy="915" r="12" fill="#F9E5BF"/>
<circle cx="1288" cy="915" r="13.5" stroke="url(#paint10_angular_2002_1606)" stroke-width="3"/>
</g>
<g filter="url(#filter11_dii_2002_1606)">
<circle cx="200" cy="915" r="12" fill="#F9E5BF"/>
<circle cx="200" cy="915" r="13.5" stroke="url(#paint11_angular_2002_1606)" stroke-width="3"/>
</g>
<defs>
<filter id="filter0_b_2002_1606" x="104" y="-20" width="1280" height="2088" filterUnits="userSpaceOnUse" color-interpolation-filters="sRGB">
<feFlood flood-opacity="0" result="BackgroundImageFix"/>
<feGaussianBlur in="BackgroundImageFix" stdDeviation="10"/>
<feComposite in2="SourceAlpha" operator="in" result="effect1_backgroundBlur_2002_1606"/>
<feBlend mode="normal" in="SourceGraphic" in2="effect1_backgroundBlur_2002_1606" result="shape"/>
</filter>
<filter id="filter1_d_2002_1606" x="0" y="759" width="1456" height="587" filterUnits="userSpaceOnUse" color-interpolation-filters="sRGB">
<feFlood flood-opacity="0" result="BackgroundImageFix"/>
<feColorMatrix in="SourceAlpha" type="matrix" values="0 0 0 0 0 0 0 0 0 0 0 0 0 0 0 0 0 0 127 0" result="hardAlpha"/>
<feOffset dx="-16" dy="28"/>
<feGaussianBlur stdDeviation="54"/>
<feComposite in2="hardAlpha" operator="out"/>
<feColorMatrix type="matrix" values="0 0 0 0 0 0 0 0 0 0 0 0 0 0 0 0 0 0 0.55 0"/>
<feBlend mode="normal" in2="BackgroundImageFix" result="effect1_dropShadow_2002_1606"/>
<feBlend mode="normal" in="SourceGraphic" in2="effect1_dropShadow_2002_1606" result="shape"/>
</filter>
<filter id="filter2_ii_2002_1606" x="541" y="1089" width="222" height="44" filterUnits="userSpaceOnUse" color-interpolation-filters="sRGB">
<feFlood flood-opacity="0" result="BackgroundImageFix"/>
<feBlend mode="normal" in="SourceGraphic" in2="BackgroundImageFix" result="shape"/>
<feColorMatrix in="SourceAlpha" type="matrix" values="0 0 0 0 0 0 0 0 0 0 0 0 0 0 0 0 0 0 127 0" result="hardAlpha"/>
<feMorphology radius="4" operator="erode" in="SourceAlpha" result="effect1_innerShadow_2002_1606"/>
<feOffset dx="-2" dy="2"/>
<feGaussianBlur stdDeviation="1"/>
<feComposite in2="hardAlpha" operator="arithmetic" k2="-1" k3="1"/>
<feColorMatrix type="matrix" values="0 0 0 0 0.607843 0 0 0 0 0.643137 0 0 0 0 0.654902 0 0 0 0.4 0"/>
<feBlend mode="normal" in2="shape" result="effect1_innerShadow_2002_1606"/>
<feColorMatrix in="SourceAlpha" type="matrix" values="0 0 0 0 0 0 0 0 0 0 0 0 0 0 0 0 0 0 127 0" result="hardAlpha"/>
<feMorphology radius="4" operator="erode" in="SourceAlpha" result="effect2_innerShadow_2002_1606"/>
<feOffset dx="2" dy="-2"/>
<feGaussianBlur stdDeviation="1"/>
<feComposite in2="hardAlpha" operator="arithmetic" k2="-1" k3="1"/>
<feColorMatrix type="matrix" values="0 0 0 0 0 0 0 0 0 0 0 0 0 0 0 0 0 0 0.45 0"/>
<feBlend mode="normal" in2="effect1_innerShadow_2002_1606" result="effect2_innerShadow_2002_1606"/>
</filter>
<filter id="filter3_ii_2002_1606" x="783" y="1089" width="164" height="44" filterUnits="userSpaceOnUse" color-interpolation-filters="sRGB">
<feFlood flood-opacity="0" result="BackgroundImageFix"/>
<feBlend mode="normal" in="SourceGraphic" in2="BackgroundImageFix" result="shape"/>
<feColorMatrix in="SourceAlpha" type="matrix" values="0 0 0 0 0 0 0 0 0 0 0 0 0 0 0 0 0 0 127 0" result="hardAlpha"/>
<feMorphology radius="4" operator="erode" in="SourceAlpha" result="effect1_innerShadow_2002_1606"/>
<feOffset dx="-2" dy="2"/>
<feGaussianBlur stdDeviation="1"/>
<feComposite in2="hardAlpha" operator="arithmetic" k2="-1" k3="1"/>
<feColorMatrix type="matrix" values="0 0 0 0 0.607843 0 0 0 0 0.643137 0 0 0 0 0.654902 0 0 0 0.4 0"/>
<feBlend mode="normal" in2="shape" result="effect1_innerShadow_2002_1606"/>
<feColorMatrix in="SourceAlpha" type="matrix" values="0 0 0 0 0 0 0 0 0 0 0 0 0 0 0 0 0 0 127 0" result="hardAlpha"/>
<feMorphology radius="4" operator="erode" in="SourceAlpha" result="effect2_innerShadow_2002_1606"/>
<feOffset dx="2" dy="-2"/>
<feGaussianBlur stdDeviation="1"/>
<feComposite in2="hardAlpha" operator="arithmetic" k2="-1" k3="1"/>
<feColorMatrix type="matrix" values="0 0 0 0 0 0 0 0 0 0 0 0 0 0 0 0 0 0 0.45 0"/>
<feBlend mode="normal" in2="effect1_innerShadow_2002_1606" result="effect2_innerShadow_2002_1606"/>
</filter>
<filter id="filter4_dd_2002_1606" x="588.258" y="708.927" width="290.486" height="302.526" filterUnits="userSpaceOnUse" color-interpolation-filters="sRGB">
<feFlood flood-opacity="0" result="BackgroundImageFix"/>
<feColorMatrix in="SourceAlpha" type="matrix" values="0 0 0 0 0 0 0 0 0 0 0 0 0 0 0 0 0 0 127 0" result="hardAlpha"/>
<feOffset dx="-10.5" dy="25.5"/>
<feGaussianBlur stdDeviation="15"/>
<feComposite in2="hardAlpha" operator="out"/>
<feColorMatrix type="matrix" values="0 0 0 0 0.32895 0 0 0 0 0.312847 0 0 0 0 0.441667 0 0 0 0.65 0"/>
<feBlend mode="normal" in2="BackgroundImageFix" result="effect1_dropShadow_2002_1606"/>
<feColorMatrix in="SourceAlpha" type="matrix" values="0 0 0 0 0 0 0 0 0 0 0 0 0 0 0 0 0 0 127 0" result="hardAlpha"/>
<feOffset dy="6"/>
<feGaussianBlur stdDeviation="9"/>
<feComposite in2="hardAlpha" operator="out"/>
<feColorMatrix type="matrix" values="0 0 0 0 0 0 0 0 0 0 0 0 0 0 0 0 0 0 0.15 0"/>
<feBlend mode="normal" in2="effect1_dropShadow_2002_1606" result="effect2_dropShadow_2002_1606"/>
<feBlend mode="normal" in="SourceGraphic" in2="effect2_dropShadow_2002_1606" result="shape"/>
</filter>
<filter id="filter5_ii_2002_1606" x="627.258" y="719.427" width="234.986" height="239.526" filterUnits="userSpaceOnUse" color-interpolation-filters="sRGB">
<feFlood flood-opacity="0" result="BackgroundImageFix"/>
<feBlend mode="normal" in="SourceGraphic" in2="BackgroundImageFix" result="shape"/>
<feColorMatrix in="SourceAlpha" type="matrix" values="0 0 0 0 0 0 0 0 0 0 0 0 0 0 0 0 0 0 127 0" result="hardAlpha"/>
<feOffset dx="-1.5" dy="-7.5"/>
<feGaussianBlur stdDeviation="0.75"/>
<feComposite in2="hardAlpha" operator="arithmetic" k2="-1" k3="1"/>
<feColorMatrix type="matrix" values="0 0 0 0 0.827451 0 0 0 0 0.592157 0 0 0 0 0.341176 0 0 0 1 0"/>
<feBlend mode="normal" in2="shape" result="effect1_innerShadow_2002_1606"/>
<feColorMatrix in="SourceAlpha" type="matrix" values="0 0 0 0 0 0 0 0 0 0 0 0 0 0 0 0 0 0 127 0" result="hardAlpha"/>
<feOffset dx="4.5" dy="4.5"/>
<feGaussianBlur stdDeviation="1.5"/>
<feComposite in2="hardAlpha" operator="arithmetic" k2="-1" k3="1"/>
<feColorMatrix type="matrix" values="0 0 0 0 0.984314 0 0 0 0 0.913725 0 0 0 0 0.760784 0 0 0 0.56 0"/>
<feBlend mode="normal" in2="effect1_innerShadow_2002_1606" result="effect2_innerShadow_2002_1606"/>
</filter>
<filter id="filter6_ii_2002_1606" x="623.299" y="719.103" width="242.901" height="242.294" filterUnits="userSpaceOnUse" color-interpolation-filters="sRGB">
<feFlood flood-opacity="0" result="BackgroundImageFix"/>
<feBlend mode="normal" in="SourceGraphic" in2="BackgroundImageFix" result="shape"/>
<feColorMatrix in="SourceAlpha" type="matrix" values="0 0 0 0 0 0 0 0 0 0 0 0 0 0 0 0 0 0 127 0" result="hardAlpha"/>
<feOffset dx="-4.5" dy="-4.5"/>
<feGaussianBlur stdDeviation="0.75"/>
<feComposite in2="hardAlpha" operator="arithmetic" k2="-1" k3="1"/>
<feColorMatrix type="matrix" values="0 0 0 0 0.827451 0 0 0 0 0.592157 0 0 0 0 0.341176 0 0 0 1 0"/>
<feBlend mode="normal" in2="shape" result="effect1_innerShadow_2002_1606"/>
<feColorMatrix in="SourceAlpha" type="matrix" values="0 0 0 0 0 0 0 0 0 0 0 0 0 0 0 0 0 0 127 0" result="hardAlpha"/>
<feOffset dx="6" dy="6"/>
<feGaussianBlur stdDeviation="1.5"/>
<feComposite in2="hardAlpha" operator="arithmetic" k2="-1" k3="1"/>
<feColorMatrix type="matrix" values="0 0 0 0 0.984314 0 0 0 0 0.913725 0 0 0 0 0.760784 0 0 0 0.5 0"/>
<feBlend mode="normal" in2="effect1_innerShadow_2002_1606" result="effect2_innerShadow_2002_1606"/>
</filter>
<filter id="filter7_dii_2002_1606" x="696" y="796.75" width="96" height="96" filterUnits="userSpaceOnUse" color-interpolation-filters="sRGB">
<feFlood flood-opacity="0" result="BackgroundImageFix"/>
<feColorMatrix in="SourceAlpha" type="matrix" values="0 0 0 0 0 0 0 0 0 0 0 0 0 0 0 0 0 0 127 0" result="hardAlpha"/>
<feMorphology radius="3" operator="erode" in="SourceAlpha" result="effect1_dropShadow_2002_1606"/>
<feOffset dy="6"/>
<feGaussianBlur stdDeviation="5.25"/>
<feComposite in2="hardAlpha" operator="out"/>
<feColorMatrix type="matrix" values="0 0 0 0 0.776471 0 0 0 0 0.509804 0 0 0 0 0.266667 0 0 0 0.7 0"/>
<feBlend mode="normal" in2="BackgroundImageFix" result="effect1_dropShadow_2002_1606"/>
<feBlend mode="normal" in="SourceGraphic" in2="effect1_dropShadow_2002_1606" result="shape"/>
<feColorMatrix in="SourceAlpha" type="matrix" values="0 0 0 0 0 0 0 0 0 0 0 0 0 0 0 0 0 0 127 0" result="hardAlpha"/>
<feMorphology radius="12" operator="erode" in="SourceAlpha" result="effect2_innerShadow_2002_1606"/>
<feOffset dx="-1.5" dy="1.5"/>
<feGaussianBlur stdDeviation="3"/>
<feComposite in2="hardAlpha" operator="arithmetic" k2="-1" k3="1"/>
<feColorMatrix type="matrix" values="0 0 0 0 0.983333 0 0 0 0 0.818891 0 0 0 0 0.651458 0 0 0 1 0"/>
<feBlend mode="normal" in2="shape" result="effect2_innerShadow_2002_1606"/>
<feColorMatrix in="SourceAlpha" type="matrix" values="0 0 0 0 0 0 0 0 0 0 0 0 0 0 0 0 0 0 127 0" result="hardAlpha"/>
<feMorphology radius="6" operator="erode" in="SourceAlpha" result="effect3_innerShadow_2002_1606"/>
<feOffset dx="-1.5" dy="1.5"/>
<feGaussianBlur stdDeviation="1.5"/>
<feComposite in2="hardAlpha" operator="arithmetic" k2="-1" k3="1"/>
<feColorMatrix type="matrix" values="0 0 0 0 0 0 0 0 0 0 0 0 0 0 0 0 0 0 0.11 0"/>
<feBlend mode="normal" in2="effect2_innerShadow_2002_1606" result="effect3_innerShadow_2002_1606"/>
</filter>
<filter id="filter8_dii_2002_1606" x="1269" y="1115" width="38" height="40" filterUnits="userSpaceOnUse" color-interpolation-filters="sRGB">
<feFlood flood-opacity="0" result="BackgroundImageFix"/>
<feColorMatrix in="SourceAlpha" type="matrix" values="0 0 0 0 0 0 0 0 0 0 0 0 0 0 0 0 0 0 127 0" result="hardAlpha"/>
<feOffset dy="2"/>
<feGaussianBlur stdDeviation="2"/>
<feComposite in2="hardAlpha" operator="out"/>
<feColorMatrix type="matrix" values="0 0 0 0 0 0 0 0 0 0 0 0 0 0 0 0 0 0 0.75 0"/>
<feBlend mode="normal" in2="BackgroundImageFix" result="effect1_dropShadow_2002_1606"/>
<feBlend mode="normal" in="SourceGraphic" in2="effect1_dropShadow_2002_1606" result="shape"/>
<feColorMatrix in="SourceAlpha" type="matrix" values="0 0 0 0 0 0 0 0 0 0 0 0 0 0 0 0 0 0 127 0" result="hardAlpha"/>
<feOffset dx="5" dy="-6"/>
<feGaussianBlur stdDeviation="2"/>
<feComposite in2="hardAlpha" operator="arithmetic" k2="-1" k3="1"/>
<feColorMatrix type="matrix" values="0 0 0 0 0.992157 0 0 0 0 0.960784 0 0 0 0 0.854902 0 0 0 1 0"/>
<feBlend mode="normal" in2="shape" result="effect2_innerShadow_2002_1606"/>
<feColorMatrix in="SourceAlpha" type="matrix" values="0 0 0 0 0 0 0 0 0 0 0 0 0 0 0 0 0 0 127 0" result="hardAlpha"/>
<feMorphology radius="3" operator="erode" in="SourceAlpha" result="effect3_innerShadow_2002_1606"/>
<feOffset dx="-2" dy="3"/>
<feGaussianBlur stdDeviation="2"/>
<feComposite in2="hardAlpha" operator="arithmetic" k2="-1" k3="1"/>
<feColorMatrix type="matrix" values="0 0 0 0 0.972549 0 0 0 0 0.819608 0 0 0 0 0.623529 0 0 0 1 0"/>
<feBlend mode="normal" in2="effect2_innerShadow_2002_1606" result="effect3_innerShadow_2002_1606"/>
</filter>
<filter id="filter9_dii_2002_1606" x="181" y="1115" width="38" height="40" filterUnits="userSpaceOnUse" color-interpolation-filters="sRGB">
<feFlood flood-opacity="0" result="BackgroundImageFix"/>
<feColorMatrix in="SourceAlpha" type="matrix" values="0 0 0 0 0 0 0 0 0 0 0 0 0 0 0 0 0 0 127 0" result="hardAlpha"/>
<feOffset dy="2"/>
<feGaussianBlur stdDeviation="2"/>
<feComposite in2="hardAlpha" operator="out"/>
<feColorMatrix type="matrix" values="0 0 0 0 0 0 0 0 0 0 0 0 0 0 0 0 0 0 0.75 0"/>
<feBlend mode="normal" in2="BackgroundImageFix" result="effect1_dropShadow_2002_1606"/>
<feBlend mode="normal" in="SourceGraphic" in2="effect1_dropShadow_2002_1606" result="shape"/>
<feColorMatrix in="SourceAlpha" type="matrix" values="0 0 0 0 0 0 0 0 0 0 0 0 0 0 0 0 0 0 127 0" result="hardAlpha"/>
<feOffset dx="5" dy="-6"/>
<feGaussianBlur stdDeviation="2"/>
<feComposite in2="hardAlpha" operator="arithmetic" k2="-1" k3="1"/>
<feColorMatrix type="matrix" values="0 0 0 0 0.992157 0 0 0 0 0.960784 0 0 0 0 0.854902 0 0 0 1 0"/>
<feBlend mode="normal" in2="shape" result="effect2_innerShadow_2002_1606"/>
<feColorMatrix in="SourceAlpha" type="matrix" values="0 0 0 0 0 0 0 0 0 0 0 0 0 0 0 0 0 0 127 0" result="hardAlpha"/>
<feMorphology radius="3" operator="erode" in="SourceAlpha" result="effect3_innerShadow_2002_1606"/>
<feOffset dx="-2" dy="3"/>
<feGaussianBlur stdDeviation="2"/>
<feComposite in2="hardAlpha" operator="arithmetic" k2="-1" k3="1"/>
<feColorMatrix type="matrix" values="0 0 0 0 0.972549 0 0 0 0 0.819608 0 0 0 0 0.623529 0 0 0 1 0"/>
<feBlend mode="normal" in2="effect2_innerShadow_2002_1606" result="effect3_innerShadow_2002_1606"/>
</filter>
<filter id="filter10_dii_2002_1606" x="1269" y="896" width="38" height="40" filterUnits="userSpaceOnUse" color-interpolation-filters="sRGB">
<feFlood flood-opacity="0" result="BackgroundImageFix"/>
<feColorMatrix in="SourceAlpha" type="matrix" values="0 0 0 0 0 0 0 0 0 0 0 0 0 0 0 0 0 0 127 0" result="hardAlpha"/>
<feOffset dy="2"/>
<feGaussianBlur stdDeviation="2"/>
<feComposite in2="hardAlpha" operator="out"/>
<feColorMatrix type="matrix" values="0 0 0 0 0 0 0 0 0 0 0 0 0 0 0 0 0 0 0.75 0"/>
<feBlend mode="normal" in2="BackgroundImageFix" result="effect1_dropShadow_2002_1606"/>
<feBlend mode="normal" in="SourceGraphic" in2="effect1_dropShadow_2002_1606" result="shape"/>
<feColorMatrix in="SourceAlpha" type="matrix" values="0 0 0 0 0 0 0 0 0 0 0 0 0 0 0 0 0 0 127 0" result="hardAlpha"/>
<feOffset dx="5" dy="-6"/>
<feGaussianBlur stdDeviation="2"/>
<feComposite in2="hardAlpha" operator="arithmetic" k2="-1" k3="1"/>
<feColorMatrix type="matrix" values="0 0 0 0 0.992157 0 0 0 0 0.960784 0 0 0 0 0.854902 0 0 0 1 0"/>
<feBlend mode="normal" in2="shape" result="effect2_innerShadow_2002_1606"/>
<feColorMatrix in="SourceAlpha" type="matrix" values="0 0 0 0 0 0 0 0 0 0 0 0 0 0 0 0 0 0 127 0" result="hardAlpha"/>
<feMorphology radius="3" operator="erode" in="SourceAlpha" result="effect3_innerShadow_2002_1606"/>
<feOffset dx="-2" dy="3"/>
<feGaussianBlur stdDeviation="2"/>
<feComposite in2="hardAlpha" operator="arithmetic" k2="-1" k3="1"/>
<feColorMatrix type="matrix" values="0 0 0 0 0.972549 0 0 0 0 0.819608 0 0 0 0 0.623529 0 0 0 1 0"/>
<feBlend mode="normal" in2="effect2_innerShadow_2002_1606" result="effect3_innerShadow_2002_1606"/>
</filter>
<filter id="filter11_dii_2002_1606" x="181" y="896" width="38" height="40" filterUnits="userSpaceOnUse" color-interpolation-filters="sRGB">
<feFlood flood-opacity="0" result="BackgroundImageFix"/>
<feColorMatrix in="SourceAlpha" type="matrix" values="0 0 0 0 0 0 0 0 0 0 0 0 0 0 0 0 0 0 127 0" result="hardAlpha"/>
<feOffset dy="2"/>
<feGaussianBlur stdDeviation="2"/>
<feComposite in2="hardAlpha" operator="out"/>
<feColorMatrix type="matrix" values="0 0 0 0 0 0 0 0 0 0 0 0 0 0 0 0 0 0 0.75 0"/>
<feBlend mode="normal" in2="BackgroundImageFix" result="effect1_dropShadow_2002_1606"/>
<feBlend mode="normal" in="SourceGraphic" in2="effect1_dropShadow_2002_1606" result="shape"/>
<feColorMatrix in="SourceAlpha" type="matrix" values="0 0 0 0 0 0 0 0 0 0 0 0 0 0 0 0 0 0 127 0" result="hardAlpha"/>
<feOffset dx="5" dy="-6"/>
<feGaussianBlur stdDeviation="2"/>
<feComposite in2="hardAlpha" operator="arithmetic" k2="-1" k3="1"/>
<feColorMatrix type="matrix" values="0 0 0 0 0.992157 0 0 0 0 0.960784 0 0 0 0 0.854902 0 0 0 1 0"/>
<feBlend mode="normal" in2="shape" result="effect2_innerShadow_2002_1606"/>
<feColorMatrix in="SourceAlpha" type="matrix" values="0 0 0 0 0 0 0 0 0 0 0 0 0 0 0 0 0 0 127 0" result="hardAlpha"/>
<feMorphology radius="3" operator="erode" in="SourceAlpha" result="effect3_innerShadow_2002_1606"/>
<feOffset dx="-2" dy="3"/>
<feGaussianBlur stdDeviation="2"/>
<feComposite in2="hardAlpha" operator="arithmetic" k2="-1" k3="1"/>
<feColorMatrix type="matrix" values="0 0 0 0 0.972549 0 0 0 0 0.819608 0 0 0 0 0.623529 0 0 0 1 0"/>
<feBlend mode="normal" in2="effect2_innerShadow_2002_1606" result="effect3_innerShadow_2002_1606"/>
</filter>
<radialGradient id="paint0_radial_2002_1606" cx="0" cy="0" r="1" gradientUnits="userSpaceOnUse" gradientTransform="translate(744 1024) rotate(90) scale(1024 620)">
<stop stop-opacity="0"/>
<stop offset="1"/>
</radialGradient>
<linearGradient id="paint1_linear_2002_1606" x1="5.02065e-06" y1="185" x2="1240" y2="185" gradientUnits="userSpaceOnUse">
<stop/>
<stop offset="0.1875" stop-opacity="0.318976"/>
<stop offset="0.497107" stop-opacity="0"/>
<stop offset="0.828125" stop-opacity="0.192174"/>
<stop offset="1"/>
</linearGradient>
<radialGradient id="paint2_radial_2002_1606" cx="0" cy="0" r="1" gradientUnits="userSpaceOnUse" gradientTransform="translate(784.084 835.989) rotate(143.379) scale(177.471 180.113)">
<stop stop-color="#F3D0A2"/>
<stop offset="1" stop-color="#EDB072"/>
</radialGradient>
<linearGradient id="paint3_linear_2002_1606" x1="744" y1="742.75" x2="744" y2="934.75" gradientUnits="userSpaceOnUse">
<stop stop-color="#A4A19D"/>
<stop offset="1" stop-color="#838280"/>
</linearGradient>
<radialGradient id="paint4_diamond_2002_1606" cx="0" cy="0" r="1" gradientUnits="userSpaceOnUse" gradientTransform="translate(744 838.44) rotate(45) scale(84.75 84)">
<stop offset="0.344643" stop-color="#FAECC9"/>
<stop offset="1" stop-color="#ECD4A8"/>
</radialGradient>
<radialGradient id="paint5_diamond_2002_1606" cx="0" cy="0" r="1" gradientUnits="userSpaceOnUse" gradientTransform="translate(744 839.5) rotate(135) scale(163.567 166.109)">
<stop offset="0.344643" stop-color="#F9E0B2"/>
<stop offset="1" stop-color="#CA8B4E"/>
</radialGradient>
<radialGradient id="paint6_radial_2002_1606" cx="0" cy="0" r="1" gradientUnits="userSpaceOnUse" gradientTransform="translate(751.125 830.125) rotate(98.2525) scale(49.639)">
<stop stop-color="#F5D5A2"/>
<stop offset="1" stop-color="#F9E8C5"/>
</radialGradient>
<radialGradient id="paint7_radial_2002_1606" cx="0" cy="0" r="1" gradientUnits="userSpaceOnUse" gradientTransform="translate(744 838.75) rotate(90) scale(40.5)">
<stop offset="0.854167" stop-color="#D5CBBD"/>
<stop offset="0.875" stop-color="#E9E3D6"/>
<stop offset="0.927083" stop-color="#E4DDCF"/>
<stop offset="0.956402" stop-color="#EBE5D8"/>
<stop offset="1" stop-color="#C7AE9D"/>
</radialGradient>
<radialGradient id="paint8_angular_2002_1606" cx="0" cy="0" r="1" gradientUnits="userSpaceOnUse" gradientTransform="translate(1288 1134) rotate(-49.1446) scale(13.9767 13.8616)">
<stop offset="0.698529" stop-color="#ECBD7D"/>
<stop offset="1" stop-color="#F4F5EB"/>
</radialGradient>
<radialGradient id="paint9_angular_2002_1606" cx="0" cy="0" r="1" gradientUnits="userSpaceOnUse" gradientTransform="translate(200 1134) rotate(-49.1446) scale(13.9767 13.8616)">
<stop offset="0.698529" stop-color="#ECBD7D"/>
<stop offset="1" stop-color="#F4F5EB"/>
</radialGradient>
<radialGradient id="paint10_angular_2002_1606" cx="0" cy="0" r="1" gradientUnits="userSpaceOnUse" gradientTransform="translate(1288 915) rotate(-49.1446) scale(13.9767 13.8616)">
<stop offset="0.698529" stop-color="#ECBD7D"/>
<stop offset="1" stop-color="#F4F5EB"/>
</radialGradient>
<radialGradient id="paint11_angular_2002_1606" cx="0" cy="0" r="1" gradientUnits="userSpaceOnUse" gradientTransform="translate(200 915) rotate(-49.1446) scale(13.9767 13.8616)">
<stop offset="0.698529" stop-color="#ECBD7D"/>
<stop offset="1" stop-color="#F4F5EB"/>
</radialGradient>
</defs>
</svg>
